M48
METRIC,LZ,000.000
;FILE_FORMAT=3:3
;TYPE=PLATED
;Layer: PTH_Through
;EasyEDA v6.5.46, 2024-09-20 08:35:55
;a7edf335d4994be98b658af7e20cc970,64d3660010d149859882a44b8c89f403,10
;Gerber Generator version 0.2
;Holesize 1 = 0.310 mm
T01C0.310
;Holesize 2 = 0.889 mm
T02C0.889
;Holesize 3 = 0.915 mm
T03C0.915
;Holesize 4 = 1.301 mm
T04C1.301
%
G05
G90
T01
X002921Y-014605
X-000381Y-014605
X-004318Y013081
X-004318Y008255
X003175Y-013335
X007747Y-020320
X000127Y-026035
X002667Y-027051
X011049Y-027051
X012066Y-026035
X001905Y004318
T02
X-002286Y-011938
X-004826Y-011938
X007747Y-023622
X005207Y-023622
X002667Y-023622
X000127Y-023622
X-002413Y-023622
X-004953Y-023622
X-004699Y-017653
X-002159Y-017653
X000381Y-017653
X002921Y-017653
X-004953Y-029210
X-002413Y-029210
X000127Y-029210
X002667Y-029210
X005207Y-029210
T03
X-038989Y-017399
X-038989Y-008400
X-038989Y002601
X-038989Y007602
X-022860Y-016002
X-016637Y-016002
X-028575Y017653
X-010922Y017780
T04
X-022860Y-024892
X-027940Y-024892
X-012446Y-024892
X-017526Y-024892
M30
