G04 Layer: TopSolderMaskLayer*
G04 EasyEDA v6.5.46, 2024-09-20 08:35:55*
G04 a7edf335d4994be98b658af7e20cc970,64d3660010d149859882a44b8c89f403,10*
G04 Gerber Generator version 0.2*
G04 Scale: 100 percent, Rotated: No, Reflected: No *
G04 Dimensions in millimeters *
G04 leading zeros omitted , absolute positions ,4 integer and 5 decimal *
%FSLAX45Y45*%
%MOMM*%

%AMMACRO1*4,1,8,-0.8085,-0.8382,-0.8382,-0.8084,-0.8382,0.8085,-0.8085,0.8382,0.8084,0.8382,0.8382,0.8085,0.8382,-0.8084,0.8084,-0.8382,-0.8085,-0.8382,0*%
%AMMACRO2*4,1,8,-0.7261,-0.7258,-0.7558,-0.696,-0.7558,0.6961,-0.7261,0.7258,0.726,0.7258,0.7558,0.6961,0.7558,-0.696,0.726,-0.7258,-0.7261,-0.7258,0*%
%AMMACRO3*4,1,8,-0.5111,-1.5508,-0.5408,-1.521,-0.5408,1.5211,-0.5111,1.5508,0.511,1.5508,0.5408,1.5211,0.5408,-1.521,0.511,-1.5508,-0.5111,-1.5508,0*%
%AMMACRO4*4,1,8,-0.5873,-0.7393,-0.6171,-0.7095,-0.6171,0.7095,-0.5873,0.7393,0.5873,0.7393,0.6171,0.7095,0.6171,-0.7095,0.5873,-0.7393,-0.5873,-0.7393,0*%
%AMMACRO5*4,1,8,-0.6961,-0.7558,-0.7258,-0.726,-0.7258,0.7261,-0.6961,0.7558,0.696,0.7558,0.7258,0.7261,0.7258,-0.726,0.696,-0.7558,-0.6961,-0.7558,0*%
%AMMACRO6*4,1,8,-1.0211,-1.0508,-1.0508,-1.021,-1.0508,1.0211,-1.0211,1.0508,1.021,1.0508,1.0508,1.0211,1.0508,-1.021,1.021,-1.0508,-1.0211,-1.0508,0*%
%ADD10MACRO1*%
%ADD11C,1.6764*%
%ADD12C,2.6016*%
%ADD13O,1.7855946000000003X0.5496052*%
%ADD14O,0.5496052X1.7855946000000003*%
%ADD15C,3.1016*%
%ADD16MACRO2*%
%ADD17MACRO3*%
%ADD18MACRO4*%
%ADD19MACRO5*%
%ADD20MACRO6*%
%ADD21C,2.1016*%

%LPD*%
D10*
G01*
X-228600Y-1193797D03*
D11*
G01*
X-482600Y-1193800D03*
G01*
X774700Y-2362200D03*
G01*
X520700Y-2362200D03*
G01*
X266700Y-2362200D03*
G01*
X12700Y-2362200D03*
G01*
X-241300Y-2362200D03*
D10*
G01*
X-495300Y-2362194D03*
D12*
G01*
X-2286000Y-2489200D03*
G01*
X-2794000Y-2489200D03*
G01*
X-1244600Y-2489200D03*
G01*
X-1752600Y-2489200D03*
D13*
G01*
X624204Y144195D03*
G01*
X624204Y224205D03*
G01*
X624204Y304215D03*
G01*
X624204Y384200D03*
G01*
X624204Y464210D03*
G01*
X624204Y544195D03*
G01*
X624204Y624204D03*
G01*
X624204Y704214D03*
D14*
G01*
X480009Y848410D03*
G01*
X399999Y848410D03*
G01*
X319989Y848410D03*
G01*
X240004Y848410D03*
G01*
X159994Y848410D03*
G01*
X80009Y848410D03*
G01*
X0Y848410D03*
G01*
X-80010Y848410D03*
D13*
G01*
X-224205Y704214D03*
G01*
X-224205Y624204D03*
G01*
X-224205Y544195D03*
G01*
X-224205Y464210D03*
G01*
X-224205Y384200D03*
G01*
X-224205Y304215D03*
G01*
X-224205Y224205D03*
G01*
X-224205Y144195D03*
D14*
G01*
X-80010Y0D03*
G01*
X0Y0D03*
G01*
X80009Y0D03*
G01*
X159994Y0D03*
G01*
X240004Y0D03*
G01*
X319989Y0D03*
G01*
X399999Y0D03*
G01*
X480009Y0D03*
D15*
G01*
X-3898900Y-1739900D03*
G01*
X-3898900Y-839978D03*
G01*
X-3898900Y260096D03*
G01*
X-3898900Y760221D03*
G01*
X-2286000Y-1600200D03*
G01*
X-1663700Y-1600200D03*
G01*
X-2857500Y1765300D03*
G01*
X-1092200Y1778000D03*
D16*
G01*
X-433412Y-349483D03*
G01*
X-233408Y-349483D03*
D17*
G01*
X152401Y1743994D03*
G01*
X152401Y1303997D03*
D18*
G01*
X-430204Y-787397D03*
G01*
X-230195Y-787397D03*
D19*
G01*
X317500Y-785799D03*
G01*
X317500Y-585795D03*
D20*
G01*
X-469900Y-1765297D03*
D21*
G01*
X-215900Y-1765300D03*
G01*
X38100Y-1765300D03*
G01*
X292100Y-1765300D03*
G01*
X-495300Y-2921000D03*
G01*
X-241300Y-2921000D03*
G01*
X12700Y-2921000D03*
G01*
X266700Y-2921000D03*
D20*
G01*
X520699Y-2920994D03*
M02*
