G04 Layer: BottomLayer*
G04 EasyEDA v6.5.46, 2024-09-20 08:35:55*
G04 a7edf335d4994be98b658af7e20cc970,64d3660010d149859882a44b8c89f403,10*
G04 Gerber Generator version 0.2*
G04 Scale: 100 percent, Rotated: No, Reflected: No *
G04 Dimensions in millimeters *
G04 leading zeros omitted , absolute positions ,4 integer and 5 decimal *
%FSLAX45Y45*%
%MOMM*%

%ADD10C,0.5000*%
%ADD11R,1.5748X1.5748*%
%ADD12C,1.5748*%
%ADD13C,2.5000*%
%ADD14C,3.0000*%
%ADD15R,2.0000X2.0000*%
%ADD16C,2.0000*%
%ADD17C,0.6200*%
%ADD18C,0.0137*%

%LPD*%
G36*
X-5199532Y-3142996D02*
G01*
X-5203444Y-3142183D01*
X-5206695Y-3139998D01*
X-5208930Y-3136696D01*
X-5209692Y-3132785D01*
X-5209692Y2145080D01*
X-5208930Y2148992D01*
X-5206695Y2152243D01*
X-5203444Y2154428D01*
X-5199532Y2155240D01*
X2378303Y2155240D01*
X2382215Y2154428D01*
X2385466Y2152243D01*
X2387701Y2148992D01*
X2388463Y2145080D01*
X2388463Y-3132785D01*
X2387701Y-3136696D01*
X2385466Y-3139998D01*
X2382215Y-3142183D01*
X2378303Y-3142996D01*
G37*

%LPC*%
G36*
X1977999Y-3103321D02*
G01*
X1998776Y-3102356D01*
X2019401Y-3099460D01*
X2039670Y-3094634D01*
X2059432Y-3088030D01*
X2078482Y-3079597D01*
X2096668Y-3069488D01*
X2113838Y-3057702D01*
X2129891Y-3044393D01*
X2144623Y-3029661D01*
X2157933Y-3013659D01*
X2169668Y-2996488D01*
X2179828Y-2978302D01*
X2188210Y-2959252D01*
X2194864Y-2939491D01*
X2199640Y-2919272D01*
X2202484Y-2898648D01*
X2203450Y-2877769D01*
X2202484Y-2856941D01*
X2199640Y-2836316D01*
X2194864Y-2816098D01*
X2188210Y-2796336D01*
X2179828Y-2777286D01*
X2169668Y-2759049D01*
X2157933Y-2741930D01*
X2144623Y-2725877D01*
X2129891Y-2711196D01*
X2113838Y-2697886D01*
X2096668Y-2686100D01*
X2078482Y-2675991D01*
X2059432Y-2667558D01*
X2039670Y-2660904D01*
X2019401Y-2656128D01*
X1998776Y-2653233D01*
X1977999Y-2652268D01*
X1957171Y-2653233D01*
X1936546Y-2656128D01*
X1916277Y-2660904D01*
X1896516Y-2667558D01*
X1877466Y-2675991D01*
X1859280Y-2686100D01*
X1842109Y-2697886D01*
X1826056Y-2711196D01*
X1811324Y-2725877D01*
X1798015Y-2741930D01*
X1786280Y-2759049D01*
X1776120Y-2777286D01*
X1767738Y-2796336D01*
X1761083Y-2816098D01*
X1756308Y-2836316D01*
X1753463Y-2856941D01*
X1752498Y-2877769D01*
X1753463Y-2898648D01*
X1756308Y-2919272D01*
X1761083Y-2939491D01*
X1767738Y-2959252D01*
X1776120Y-2978302D01*
X1786280Y-2996488D01*
X1798015Y-3013659D01*
X1811324Y-3029661D01*
X1826056Y-3044393D01*
X1842109Y-3057702D01*
X1859280Y-3069488D01*
X1877466Y-3079597D01*
X1896516Y-3088030D01*
X1916277Y-3094634D01*
X1936546Y-3099460D01*
X1957171Y-3102356D01*
G37*
G36*
X-4880000Y-3103321D02*
G01*
X-4859172Y-3102356D01*
X-4838547Y-3099460D01*
X-4818278Y-3094634D01*
X-4798568Y-3088030D01*
X-4779518Y-3079597D01*
X-4761280Y-3069488D01*
X-4744110Y-3057702D01*
X-4728108Y-3044393D01*
X-4713376Y-3029661D01*
X-4700066Y-3013659D01*
X-4688281Y-2996488D01*
X-4678172Y-2978302D01*
X-4669739Y-2959252D01*
X-4663135Y-2939491D01*
X-4658360Y-2919272D01*
X-4655464Y-2898648D01*
X-4654499Y-2877769D01*
X-4655464Y-2856941D01*
X-4658360Y-2836316D01*
X-4663135Y-2816098D01*
X-4669739Y-2796336D01*
X-4678172Y-2777286D01*
X-4688281Y-2759049D01*
X-4700066Y-2741930D01*
X-4713376Y-2725877D01*
X-4728108Y-2711196D01*
X-4744110Y-2697886D01*
X-4761280Y-2686100D01*
X-4779518Y-2675991D01*
X-4798568Y-2667558D01*
X-4818278Y-2660904D01*
X-4838547Y-2656128D01*
X-4859172Y-2653233D01*
X-4880000Y-2652268D01*
X-4900828Y-2653233D01*
X-4921453Y-2656128D01*
X-4941722Y-2660904D01*
X-4961432Y-2667558D01*
X-4980482Y-2675991D01*
X-4998720Y-2686100D01*
X-5015890Y-2697886D01*
X-5031892Y-2711196D01*
X-5046624Y-2725877D01*
X-5059934Y-2741930D01*
X-5071719Y-2759049D01*
X-5081828Y-2777286D01*
X-5090261Y-2796336D01*
X-5096865Y-2816098D01*
X-5101640Y-2836316D01*
X-5104536Y-2856941D01*
X-5105501Y-2877769D01*
X-5104536Y-2898648D01*
X-5101640Y-2919272D01*
X-5096865Y-2939491D01*
X-5090261Y-2959252D01*
X-5081828Y-2978302D01*
X-5071719Y-2996488D01*
X-5059934Y-3013659D01*
X-5046624Y-3029661D01*
X-5031892Y-3044393D01*
X-5015890Y-3057702D01*
X-4998720Y-3069488D01*
X-4980482Y-3079597D01*
X-4961432Y-3088030D01*
X-4941722Y-3094634D01*
X-4921453Y-3099460D01*
X-4900828Y-3102356D01*
G37*
G36*
X12700Y-3071520D02*
G01*
X29565Y-3070555D01*
X46177Y-3067710D01*
X62382Y-3062986D01*
X77978Y-3056534D01*
X92760Y-3048406D01*
X106527Y-3038602D01*
X119126Y-3027375D01*
X130352Y-3014776D01*
X131419Y-3013303D01*
X134213Y-3010611D01*
X137769Y-3009188D01*
X141630Y-3009188D01*
X145186Y-3010611D01*
X147980Y-3013303D01*
X149047Y-3014776D01*
X160274Y-3027375D01*
X172872Y-3038602D01*
X186639Y-3048406D01*
X201422Y-3056534D01*
X217017Y-3062986D01*
X233222Y-3067710D01*
X249834Y-3070555D01*
X266700Y-3071520D01*
X283565Y-3070555D01*
X300177Y-3067710D01*
X316382Y-3062986D01*
X331978Y-3056534D01*
X346760Y-3048406D01*
X360324Y-3038805D01*
X364388Y-3037078D01*
X368808Y-3037230D01*
X372719Y-3039313D01*
X375412Y-3042818D01*
X376986Y-3046272D01*
X382066Y-3053435D01*
X388264Y-3059633D01*
X395478Y-3064713D01*
X403453Y-3068370D01*
X411937Y-3070707D01*
X421132Y-3071520D01*
X620268Y-3071520D01*
X629462Y-3070707D01*
X637946Y-3068370D01*
X645922Y-3064713D01*
X653135Y-3059633D01*
X659333Y-3053435D01*
X664413Y-3046272D01*
X668121Y-3038297D01*
X670407Y-3029712D01*
X671220Y-3020517D01*
X671220Y-2821482D01*
X670407Y-2812237D01*
X668121Y-2803702D01*
X664057Y-2795066D01*
X663092Y-2791155D01*
X663803Y-2787091D01*
X665937Y-2783687D01*
X669290Y-2781452D01*
X673252Y-2780588D01*
X1072743Y-2780588D01*
X1076706Y-2781452D01*
X1078585Y-2782163D01*
X1090117Y-2785262D01*
X1101902Y-2786481D01*
X1113790Y-2786075D01*
X1125524Y-2783941D01*
X1136751Y-2780080D01*
X1147318Y-2774645D01*
X1157020Y-2767736D01*
X1165555Y-2759506D01*
X1172819Y-2750007D01*
X1178661Y-2739644D01*
X1182928Y-2728620D01*
X1185519Y-2716987D01*
X1186383Y-2705150D01*
X1185621Y-2694990D01*
X1186281Y-2690622D01*
X1188720Y-2686913D01*
X1192479Y-2684678D01*
X1196848Y-2684170D01*
X1203604Y-2684881D01*
X1215491Y-2684424D01*
X1227226Y-2682341D01*
X1238453Y-2678480D01*
X1249019Y-2673045D01*
X1258722Y-2666136D01*
X1267256Y-2657856D01*
X1274521Y-2648407D01*
X1280363Y-2638044D01*
X1284630Y-2626918D01*
X1287221Y-2615387D01*
X1288084Y-2603449D01*
X1287221Y-2591562D01*
X1284630Y-2579979D01*
X1280363Y-2568905D01*
X1274521Y-2558491D01*
X1267256Y-2549093D01*
X1258722Y-2540812D01*
X1249019Y-2533904D01*
X1238453Y-2528519D01*
X1227226Y-2524607D01*
X1215491Y-2522524D01*
X1203604Y-2522067D01*
X1191818Y-2523337D01*
X1180287Y-2526385D01*
X1178356Y-2527147D01*
X1174394Y-2528011D01*
X44754Y-2528011D01*
X41452Y-2527503D01*
X33324Y-2524658D01*
X21590Y-2522524D01*
X9702Y-2522118D01*
X-2082Y-2523337D01*
X-13614Y-2526436D01*
X-24536Y-2531008D01*
X-34696Y-2537256D01*
X-43840Y-2544826D01*
X-51765Y-2553665D01*
X-58369Y-2563672D01*
X-63398Y-2574442D01*
X-66802Y-2585770D01*
X-68529Y-2597505D01*
X-68529Y-2609443D01*
X-66802Y-2621229D01*
X-63398Y-2632557D01*
X-58369Y-2643327D01*
X-51765Y-2653284D01*
X-43840Y-2662174D01*
X-34696Y-2669743D01*
X-24536Y-2675991D01*
X-13614Y-2680563D01*
X-2082Y-2683560D01*
X9702Y-2684881D01*
X21590Y-2684424D01*
X33324Y-2682341D01*
X41452Y-2679496D01*
X44704Y-2678988D01*
X176631Y-2678988D01*
X180898Y-2679954D01*
X184353Y-2682494D01*
X186385Y-2686304D01*
X186690Y-2690672D01*
X185470Y-2699105D01*
X185470Y-2711043D01*
X187198Y-2722829D01*
X190601Y-2734157D01*
X195630Y-2744927D01*
X202234Y-2754884D01*
X210159Y-2763774D01*
X211683Y-2764993D01*
X214274Y-2768295D01*
X215341Y-2772257D01*
X214731Y-2776372D01*
X212547Y-2779928D01*
X209092Y-2782214D01*
X201422Y-2785465D01*
X186639Y-2793593D01*
X172872Y-2803347D01*
X160274Y-2814624D01*
X149047Y-2827172D01*
X147980Y-2828645D01*
X145186Y-2831338D01*
X141630Y-2832811D01*
X137769Y-2832811D01*
X134213Y-2831338D01*
X131419Y-2828645D01*
X130352Y-2827172D01*
X119126Y-2814624D01*
X106527Y-2803347D01*
X92760Y-2793593D01*
X77978Y-2785465D01*
X62382Y-2778963D01*
X46177Y-2774238D01*
X29565Y-2771444D01*
X12700Y-2770479D01*
X-4165Y-2771444D01*
X-20777Y-2774238D01*
X-36982Y-2778963D01*
X-52578Y-2785465D01*
X-67360Y-2793593D01*
X-81127Y-2803347D01*
X-93726Y-2814624D01*
X-104952Y-2827172D01*
X-106019Y-2828645D01*
X-108813Y-2831338D01*
X-112369Y-2832811D01*
X-116230Y-2832811D01*
X-119786Y-2831338D01*
X-122580Y-2828645D01*
X-123647Y-2827172D01*
X-134874Y-2814624D01*
X-147472Y-2803347D01*
X-161239Y-2793593D01*
X-176022Y-2785465D01*
X-184962Y-2781706D01*
X-184962Y-2864612D01*
X-140919Y-2864612D01*
X-137261Y-2865374D01*
X-134061Y-2867355D01*
X-131826Y-2870301D01*
X-130810Y-2873857D01*
X-131165Y-2877667D01*
X-134010Y-2887522D01*
X-136855Y-2904134D01*
X-137769Y-2920949D01*
X-136855Y-2937865D01*
X-134010Y-2954477D01*
X-131165Y-2964332D01*
X-130810Y-2968142D01*
X-131826Y-2971647D01*
X-134061Y-2974644D01*
X-137261Y-2976626D01*
X-140919Y-2977388D01*
X-184962Y-2977388D01*
X-184962Y-3060293D01*
X-176022Y-3056534D01*
X-161239Y-3048406D01*
X-147472Y-3038602D01*
X-134874Y-3027375D01*
X-123647Y-3014776D01*
X-122580Y-3013303D01*
X-119786Y-3010611D01*
X-116230Y-3009188D01*
X-112369Y-3009188D01*
X-108813Y-3010611D01*
X-106019Y-3013303D01*
X-104952Y-3014776D01*
X-93726Y-3027375D01*
X-81127Y-3038602D01*
X-67360Y-3048406D01*
X-52578Y-3056534D01*
X-36982Y-3062986D01*
X-20777Y-3067710D01*
X-4165Y-3070555D01*
G37*
G36*
X-551637Y-3060293D02*
G01*
X-551637Y-2977388D01*
X-634593Y-2977388D01*
X-630885Y-2986278D01*
X-622706Y-3001010D01*
X-612952Y-3014776D01*
X-601726Y-3027375D01*
X-589127Y-3038602D01*
X-575360Y-3048406D01*
X-560578Y-3056534D01*
G37*
G36*
X-438962Y-3060293D02*
G01*
X-430022Y-3056534D01*
X-415239Y-3048406D01*
X-401472Y-3038602D01*
X-388874Y-3027375D01*
X-377647Y-3014776D01*
X-376580Y-3013303D01*
X-373786Y-3010611D01*
X-370230Y-3009188D01*
X-366369Y-3009188D01*
X-362813Y-3010611D01*
X-360019Y-3013303D01*
X-358952Y-3014776D01*
X-347726Y-3027375D01*
X-335127Y-3038602D01*
X-321360Y-3048406D01*
X-306578Y-3056534D01*
X-297637Y-3060293D01*
X-297637Y-2977388D01*
X-438962Y-2977388D01*
G37*
G36*
X-634593Y-2864612D02*
G01*
X-551637Y-2864612D01*
X-551637Y-2781706D01*
X-560578Y-2785465D01*
X-575360Y-2793593D01*
X-589127Y-2803347D01*
X-601726Y-2814624D01*
X-612952Y-2827172D01*
X-622706Y-2840888D01*
X-630885Y-2855722D01*
G37*
G36*
X-438962Y-2864612D02*
G01*
X-297637Y-2864612D01*
X-297637Y-2781706D01*
X-306578Y-2785465D01*
X-321360Y-2793593D01*
X-335127Y-2803347D01*
X-347726Y-2814624D01*
X-358952Y-2827172D01*
X-360019Y-2828645D01*
X-362813Y-2831338D01*
X-366369Y-2832811D01*
X-370230Y-2832811D01*
X-373786Y-2831338D01*
X-376580Y-2828645D01*
X-377647Y-2827172D01*
X-388874Y-2814624D01*
X-401472Y-2803347D01*
X-415239Y-2793593D01*
X-430022Y-2785465D01*
X-438962Y-2781706D01*
G37*
G36*
X-1748078Y-2664663D02*
G01*
X-1730044Y-2663240D01*
X-1712315Y-2659938D01*
X-1694942Y-2654960D01*
X-1678228Y-2648153D01*
X-1662277Y-2639618D01*
X-1647291Y-2629560D01*
X-1633372Y-2617978D01*
X-1620774Y-2605074D01*
X-1609598Y-2590901D01*
X-1599895Y-2575610D01*
X-1591818Y-2559456D01*
X-1585417Y-2542590D01*
X-1580845Y-2525115D01*
X-1578051Y-2507234D01*
X-1577136Y-2489149D01*
X-1578051Y-2471115D01*
X-1580845Y-2453284D01*
X-1585417Y-2435809D01*
X-1591818Y-2418943D01*
X-1599895Y-2402738D01*
X-1609598Y-2387498D01*
X-1620774Y-2373325D01*
X-1633372Y-2360422D01*
X-1647291Y-2348788D01*
X-1662277Y-2338730D01*
X-1678228Y-2330246D01*
X-1694942Y-2323439D01*
X-1712315Y-2318410D01*
X-1730044Y-2315159D01*
X-1748078Y-2313736D01*
X-1766163Y-2314194D01*
X-1784045Y-2316530D01*
X-1801622Y-2320747D01*
X-1818690Y-2326690D01*
X-1835048Y-2334260D01*
X-1850542Y-2343556D01*
X-1865020Y-2354478D01*
X-1878279Y-2366721D01*
X-1890217Y-2380335D01*
X-1900682Y-2395016D01*
X-1909572Y-2410764D01*
X-1916785Y-2427325D01*
X-1922272Y-2444496D01*
X-1925980Y-2462174D01*
X-1927860Y-2480157D01*
X-1927860Y-2498242D01*
X-1925980Y-2516225D01*
X-1922272Y-2533904D01*
X-1916785Y-2551074D01*
X-1909572Y-2567635D01*
X-1900682Y-2583332D01*
X-1890217Y-2598064D01*
X-1878279Y-2611628D01*
X-1865020Y-2623921D01*
X-1850542Y-2634742D01*
X-1835048Y-2644038D01*
X-1818690Y-2651709D01*
X-1801622Y-2657652D01*
X-1784045Y-2661869D01*
X-1766163Y-2664155D01*
G37*
G36*
X-1240078Y-2664663D02*
G01*
X-1222044Y-2663240D01*
X-1204315Y-2659938D01*
X-1186942Y-2654960D01*
X-1170228Y-2648153D01*
X-1154277Y-2639618D01*
X-1139291Y-2629560D01*
X-1125372Y-2617978D01*
X-1112774Y-2605074D01*
X-1101598Y-2590901D01*
X-1091895Y-2575610D01*
X-1083818Y-2559456D01*
X-1077417Y-2542590D01*
X-1072845Y-2525115D01*
X-1070051Y-2507234D01*
X-1069136Y-2489149D01*
X-1070051Y-2471115D01*
X-1072845Y-2453284D01*
X-1077417Y-2435809D01*
X-1083818Y-2418943D01*
X-1091895Y-2402738D01*
X-1101598Y-2387498D01*
X-1112774Y-2373325D01*
X-1125372Y-2360422D01*
X-1139291Y-2348788D01*
X-1154277Y-2338730D01*
X-1170228Y-2330246D01*
X-1186942Y-2323439D01*
X-1204315Y-2318410D01*
X-1222044Y-2315159D01*
X-1240078Y-2313736D01*
X-1258163Y-2314194D01*
X-1276045Y-2316530D01*
X-1293622Y-2320747D01*
X-1310690Y-2326690D01*
X-1327048Y-2334260D01*
X-1342542Y-2343556D01*
X-1357020Y-2354478D01*
X-1370279Y-2366721D01*
X-1382217Y-2380335D01*
X-1392682Y-2395016D01*
X-1401572Y-2410764D01*
X-1408785Y-2427325D01*
X-1414272Y-2444496D01*
X-1417980Y-2462174D01*
X-1419860Y-2480157D01*
X-1419860Y-2498242D01*
X-1417980Y-2516225D01*
X-1414272Y-2533904D01*
X-1408785Y-2551074D01*
X-1401572Y-2567635D01*
X-1392682Y-2583332D01*
X-1382217Y-2598064D01*
X-1370279Y-2611628D01*
X-1357020Y-2623921D01*
X-1342542Y-2634742D01*
X-1327048Y-2644038D01*
X-1310690Y-2651709D01*
X-1293622Y-2657652D01*
X-1276045Y-2661869D01*
X-1258163Y-2664155D01*
G37*
G36*
X-2789478Y-2664663D02*
G01*
X-2771444Y-2663240D01*
X-2753664Y-2659938D01*
X-2736342Y-2654960D01*
X-2719628Y-2648153D01*
X-2703677Y-2639618D01*
X-2688691Y-2629560D01*
X-2674772Y-2617978D01*
X-2662174Y-2605074D01*
X-2650998Y-2590901D01*
X-2641295Y-2575610D01*
X-2633218Y-2559456D01*
X-2626817Y-2542590D01*
X-2622245Y-2525115D01*
X-2619451Y-2507234D01*
X-2618536Y-2489149D01*
X-2619451Y-2471115D01*
X-2622245Y-2453284D01*
X-2626817Y-2435809D01*
X-2633218Y-2418943D01*
X-2641295Y-2402738D01*
X-2650998Y-2387498D01*
X-2662174Y-2373325D01*
X-2674772Y-2360422D01*
X-2688691Y-2348788D01*
X-2703677Y-2338730D01*
X-2719628Y-2330246D01*
X-2736342Y-2323439D01*
X-2753664Y-2318410D01*
X-2771444Y-2315159D01*
X-2789478Y-2313736D01*
X-2807512Y-2314194D01*
X-2825445Y-2316530D01*
X-2843022Y-2320747D01*
X-2860090Y-2326690D01*
X-2876448Y-2334260D01*
X-2891942Y-2343556D01*
X-2906420Y-2354478D01*
X-2919679Y-2366721D01*
X-2931617Y-2380335D01*
X-2942082Y-2395016D01*
X-2950972Y-2410764D01*
X-2958185Y-2427325D01*
X-2963672Y-2444496D01*
X-2967380Y-2462174D01*
X-2969260Y-2480157D01*
X-2969260Y-2498242D01*
X-2967380Y-2516225D01*
X-2963672Y-2533904D01*
X-2958185Y-2551074D01*
X-2950972Y-2567635D01*
X-2942082Y-2583332D01*
X-2931617Y-2598064D01*
X-2919679Y-2611628D01*
X-2906420Y-2623921D01*
X-2891942Y-2634742D01*
X-2876448Y-2644038D01*
X-2860090Y-2651709D01*
X-2843022Y-2657652D01*
X-2825445Y-2661869D01*
X-2807512Y-2664155D01*
G37*
G36*
X-2281478Y-2664663D02*
G01*
X-2263444Y-2663240D01*
X-2245664Y-2659938D01*
X-2228342Y-2654960D01*
X-2211628Y-2648153D01*
X-2195677Y-2639618D01*
X-2180691Y-2629560D01*
X-2166772Y-2617978D01*
X-2154174Y-2605074D01*
X-2142998Y-2590901D01*
X-2133295Y-2575610D01*
X-2125218Y-2559456D01*
X-2118817Y-2542590D01*
X-2114245Y-2525115D01*
X-2111451Y-2507234D01*
X-2110536Y-2489149D01*
X-2111451Y-2471115D01*
X-2114245Y-2453284D01*
X-2118817Y-2435809D01*
X-2125218Y-2418943D01*
X-2133295Y-2402738D01*
X-2142998Y-2387498D01*
X-2154174Y-2373325D01*
X-2166772Y-2360422D01*
X-2180691Y-2348788D01*
X-2195677Y-2338730D01*
X-2211628Y-2330246D01*
X-2228342Y-2323439D01*
X-2245664Y-2318410D01*
X-2263444Y-2315159D01*
X-2281478Y-2313736D01*
X-2299512Y-2314194D01*
X-2317445Y-2316530D01*
X-2335022Y-2320747D01*
X-2352090Y-2326690D01*
X-2368448Y-2334260D01*
X-2383942Y-2343556D01*
X-2398420Y-2354478D01*
X-2411679Y-2366721D01*
X-2423617Y-2380335D01*
X-2434082Y-2395016D01*
X-2442972Y-2410764D01*
X-2450185Y-2427325D01*
X-2455672Y-2444496D01*
X-2459380Y-2462174D01*
X-2461260Y-2480157D01*
X-2461260Y-2498242D01*
X-2459380Y-2516225D01*
X-2455672Y-2533904D01*
X-2450185Y-2551074D01*
X-2442972Y-2567635D01*
X-2434082Y-2583332D01*
X-2423617Y-2598064D01*
X-2411679Y-2611628D01*
X-2398420Y-2623921D01*
X-2383942Y-2634742D01*
X-2368448Y-2644038D01*
X-2352090Y-2651709D01*
X-2335022Y-2657652D01*
X-2317445Y-2661869D01*
X-2299512Y-2664155D01*
G37*
G36*
X-573582Y-2491384D02*
G01*
X-541020Y-2491384D01*
X-541020Y-2407869D01*
X-624535Y-2407869D01*
X-624535Y-2440533D01*
X-623722Y-2449728D01*
X-621436Y-2458161D01*
X-617728Y-2466136D01*
X-612698Y-2473350D01*
X-606450Y-2479598D01*
X-599287Y-2484628D01*
X-591312Y-2488387D01*
X-582777Y-2490622D01*
G37*
G36*
X-449580Y-2491384D02*
G01*
X-417017Y-2491384D01*
X-407822Y-2490622D01*
X-399288Y-2488387D01*
X-391312Y-2484628D01*
X-384149Y-2479598D01*
X-377901Y-2473350D01*
X-372872Y-2466136D01*
X-369163Y-2458161D01*
X-366877Y-2449728D01*
X-366064Y-2440178D01*
X-364845Y-2436215D01*
X-362153Y-2433116D01*
X-358444Y-2431288D01*
X-354330Y-2431034D01*
X-350469Y-2432507D01*
X-347472Y-2435402D01*
X-344017Y-2440584D01*
X-334010Y-2452217D01*
X-322732Y-2462580D01*
X-310286Y-2471420D01*
X-296875Y-2478836D01*
X-287020Y-2482799D01*
X-287020Y-2407869D01*
X-449580Y-2407869D01*
G37*
G36*
X16510Y-2491384D02*
G01*
X31800Y-2489962D01*
X46736Y-2486863D01*
X61264Y-2481986D01*
X75082Y-2475331D01*
X88036Y-2467152D01*
X99923Y-2457551D01*
X110591Y-2446528D01*
X119887Y-2434336D01*
X127660Y-2421178D01*
X130302Y-2415184D01*
X132435Y-2412085D01*
X135585Y-2409952D01*
X139293Y-2409190D01*
X143052Y-2409748D01*
X146304Y-2411679D01*
X148640Y-2414676D01*
X155448Y-2427884D01*
X163982Y-2440584D01*
X173990Y-2452217D01*
X185267Y-2462580D01*
X197713Y-2471420D01*
X211124Y-2478836D01*
X225298Y-2484577D01*
X240080Y-2488641D01*
X255219Y-2490876D01*
X270510Y-2491384D01*
X285800Y-2489962D01*
X300736Y-2486863D01*
X315264Y-2481986D01*
X329082Y-2475331D01*
X342036Y-2467152D01*
X353923Y-2457551D01*
X364591Y-2446528D01*
X373888Y-2434336D01*
X381660Y-2421178D01*
X384302Y-2415184D01*
X386435Y-2412085D01*
X389585Y-2409952D01*
X393293Y-2409190D01*
X397052Y-2409748D01*
X400304Y-2411679D01*
X402640Y-2414676D01*
X409448Y-2427884D01*
X417982Y-2440584D01*
X427990Y-2452217D01*
X439267Y-2462580D01*
X451713Y-2471420D01*
X465124Y-2478836D01*
X479298Y-2484577D01*
X494080Y-2488641D01*
X509219Y-2490876D01*
X524510Y-2491384D01*
X539800Y-2489962D01*
X554736Y-2486863D01*
X569264Y-2481986D01*
X583082Y-2475331D01*
X596036Y-2467152D01*
X607923Y-2457551D01*
X618591Y-2446528D01*
X627888Y-2434336D01*
X635660Y-2421178D01*
X638302Y-2415184D01*
X640435Y-2412085D01*
X643585Y-2409952D01*
X647293Y-2409190D01*
X651052Y-2409748D01*
X654304Y-2411679D01*
X656640Y-2414676D01*
X663448Y-2427884D01*
X671982Y-2440584D01*
X681990Y-2452217D01*
X693267Y-2462580D01*
X705713Y-2471420D01*
X719124Y-2478836D01*
X733298Y-2484577D01*
X748080Y-2488641D01*
X763219Y-2490876D01*
X778510Y-2491384D01*
X793800Y-2489962D01*
X808736Y-2486863D01*
X823264Y-2481986D01*
X837082Y-2475331D01*
X850036Y-2467152D01*
X861923Y-2457551D01*
X872591Y-2446528D01*
X881887Y-2434336D01*
X889660Y-2421178D01*
X895807Y-2407208D01*
X900277Y-2392578D01*
X903020Y-2377490D01*
X903935Y-2362149D01*
X903020Y-2346909D01*
X900277Y-2331821D01*
X895807Y-2317191D01*
X889660Y-2303221D01*
X881887Y-2290013D01*
X872591Y-2277872D01*
X861923Y-2266848D01*
X850036Y-2257247D01*
X837082Y-2249068D01*
X823264Y-2242413D01*
X808736Y-2237536D01*
X793800Y-2234438D01*
X778510Y-2233015D01*
X763219Y-2233472D01*
X748080Y-2235758D01*
X733298Y-2239822D01*
X719124Y-2245563D01*
X705713Y-2252980D01*
X693267Y-2261819D01*
X681990Y-2272182D01*
X671982Y-2283815D01*
X663448Y-2296515D01*
X656640Y-2309723D01*
X654304Y-2312720D01*
X651052Y-2314651D01*
X647293Y-2315210D01*
X643585Y-2314448D01*
X640435Y-2312263D01*
X638302Y-2309215D01*
X635660Y-2303221D01*
X627888Y-2290013D01*
X618591Y-2277872D01*
X607923Y-2266848D01*
X596036Y-2257247D01*
X583082Y-2249068D01*
X569264Y-2242413D01*
X554736Y-2237536D01*
X539800Y-2234438D01*
X524510Y-2233015D01*
X509219Y-2233472D01*
X494080Y-2235758D01*
X479298Y-2239822D01*
X465124Y-2245563D01*
X451713Y-2252980D01*
X439267Y-2261819D01*
X427990Y-2272182D01*
X417982Y-2283815D01*
X409448Y-2296515D01*
X402640Y-2309723D01*
X400304Y-2312720D01*
X397052Y-2314651D01*
X393293Y-2315210D01*
X389585Y-2314448D01*
X386435Y-2312263D01*
X384302Y-2309215D01*
X381660Y-2303221D01*
X373888Y-2290013D01*
X364591Y-2277872D01*
X353923Y-2266848D01*
X342036Y-2257247D01*
X329082Y-2249068D01*
X315264Y-2242413D01*
X300736Y-2237536D01*
X285800Y-2234438D01*
X270510Y-2233015D01*
X255219Y-2233472D01*
X240080Y-2235758D01*
X225298Y-2239822D01*
X211124Y-2245563D01*
X197713Y-2252980D01*
X185267Y-2261819D01*
X173990Y-2272182D01*
X163982Y-2283815D01*
X155448Y-2296515D01*
X148640Y-2309723D01*
X146304Y-2312720D01*
X143052Y-2314651D01*
X139293Y-2315210D01*
X135585Y-2314448D01*
X132435Y-2312263D01*
X130302Y-2309215D01*
X127660Y-2303221D01*
X119887Y-2290013D01*
X110591Y-2277872D01*
X99923Y-2266848D01*
X88036Y-2257247D01*
X75082Y-2249068D01*
X61264Y-2242413D01*
X46736Y-2237536D01*
X31800Y-2234438D01*
X16510Y-2233015D01*
X1219Y-2233472D01*
X-13919Y-2235758D01*
X-28702Y-2239822D01*
X-42875Y-2245563D01*
X-56286Y-2252980D01*
X-68732Y-2261819D01*
X-80010Y-2272182D01*
X-90017Y-2283815D01*
X-98552Y-2296515D01*
X-105359Y-2309723D01*
X-107696Y-2312720D01*
X-110947Y-2314651D01*
X-114706Y-2315210D01*
X-118414Y-2314448D01*
X-121564Y-2312263D01*
X-123698Y-2309215D01*
X-126339Y-2303221D01*
X-134112Y-2290013D01*
X-143408Y-2277872D01*
X-154076Y-2266848D01*
X-165963Y-2257247D01*
X-178917Y-2249068D01*
X-192735Y-2242413D01*
X-195580Y-2241448D01*
X-195580Y-2316480D01*
X-121869Y-2316480D01*
X-118262Y-2317089D01*
X-115163Y-2318969D01*
X-112877Y-2321915D01*
X-111760Y-2325370D01*
X-111963Y-2328976D01*
X-114503Y-2339340D01*
X-116281Y-2354580D01*
X-116281Y-2369820D01*
X-114503Y-2385009D01*
X-111963Y-2395321D01*
X-111760Y-2399030D01*
X-112877Y-2402484D01*
X-115163Y-2405380D01*
X-118262Y-2407259D01*
X-121869Y-2407869D01*
X-195580Y-2407869D01*
X-195580Y-2482900D01*
X-192735Y-2481986D01*
X-178917Y-2475331D01*
X-165963Y-2467152D01*
X-154076Y-2457551D01*
X-143408Y-2446528D01*
X-134112Y-2434336D01*
X-126339Y-2421178D01*
X-123698Y-2415184D01*
X-121564Y-2412085D01*
X-118414Y-2409952D01*
X-114706Y-2409190D01*
X-110947Y-2409748D01*
X-107696Y-2411679D01*
X-105359Y-2414676D01*
X-98552Y-2427884D01*
X-90017Y-2440584D01*
X-80010Y-2452217D01*
X-68732Y-2462580D01*
X-56286Y-2471420D01*
X-42875Y-2478836D01*
X-28702Y-2484577D01*
X-13919Y-2488641D01*
X1219Y-2490876D01*
G37*
G36*
X-624535Y-2316480D02*
G01*
X-541020Y-2316480D01*
X-541020Y-2232964D01*
X-573582Y-2232964D01*
X-582777Y-2233726D01*
X-591312Y-2236012D01*
X-599287Y-2239772D01*
X-606450Y-2244801D01*
X-612698Y-2251049D01*
X-617728Y-2258263D01*
X-621436Y-2266188D01*
X-623722Y-2274671D01*
X-624535Y-2283866D01*
G37*
G36*
X-449580Y-2316480D02*
G01*
X-287020Y-2316480D01*
X-287020Y-2241499D01*
X-296875Y-2245563D01*
X-310286Y-2252980D01*
X-322732Y-2261819D01*
X-334010Y-2272182D01*
X-344017Y-2283815D01*
X-347472Y-2288997D01*
X-350469Y-2291842D01*
X-354330Y-2293315D01*
X-358444Y-2293112D01*
X-362153Y-2291283D01*
X-364845Y-2288133D01*
X-366064Y-2284171D01*
X-366877Y-2274671D01*
X-369163Y-2266188D01*
X-372872Y-2258263D01*
X-377901Y-2251049D01*
X-384149Y-2244801D01*
X-391312Y-2239772D01*
X-399288Y-2236012D01*
X-407822Y-2233726D01*
X-417017Y-2232964D01*
X-449580Y-2232964D01*
G37*
G36*
X771702Y-2113381D02*
G01*
X783590Y-2112975D01*
X795324Y-2110841D01*
X806551Y-2106980D01*
X817118Y-2101545D01*
X826820Y-2094636D01*
X835355Y-2086406D01*
X842619Y-2076907D01*
X848461Y-2066543D01*
X852728Y-2055520D01*
X855319Y-2043887D01*
X856183Y-2032050D01*
X855319Y-2020112D01*
X852728Y-2008479D01*
X850950Y-2003907D01*
X850290Y-2000351D01*
X850239Y-1762760D01*
X849426Y-1753920D01*
X849020Y-1751533D01*
X846124Y-1740611D01*
X842721Y-1732432D01*
X841654Y-1730298D01*
X837082Y-1722678D01*
X835660Y-1720697D01*
X830021Y-1713890D01*
X394360Y-1278280D01*
X385572Y-1271219D01*
X375818Y-1265529D01*
X367639Y-1262176D01*
X357022Y-1259382D01*
X350266Y-1258570D01*
X348132Y-1258062D01*
X338124Y-1254658D01*
X326390Y-1252524D01*
X314502Y-1252118D01*
X302717Y-1253337D01*
X291185Y-1256436D01*
X280263Y-1261008D01*
X270103Y-1267256D01*
X260959Y-1274826D01*
X253034Y-1283665D01*
X246430Y-1293672D01*
X241401Y-1304442D01*
X237998Y-1315770D01*
X236270Y-1327505D01*
X236270Y-1339494D01*
X237998Y-1351229D01*
X241401Y-1362557D01*
X245110Y-1370482D01*
X246075Y-1374444D01*
X245414Y-1378508D01*
X243230Y-1381912D01*
X239877Y-1384147D01*
X235915Y-1385011D01*
X-6096Y-1385011D01*
X-9347Y-1384503D01*
X-17475Y-1381658D01*
X-29209Y-1379524D01*
X-41097Y-1379118D01*
X-52882Y-1380337D01*
X-64414Y-1383436D01*
X-75336Y-1388008D01*
X-85496Y-1394256D01*
X-94640Y-1401826D01*
X-102565Y-1410665D01*
X-109169Y-1420672D01*
X-114198Y-1431442D01*
X-117602Y-1442770D01*
X-119329Y-1454505D01*
X-119329Y-1466494D01*
X-117602Y-1478229D01*
X-114198Y-1489557D01*
X-109169Y-1500327D01*
X-102565Y-1510284D01*
X-94640Y-1519174D01*
X-85496Y-1526743D01*
X-75336Y-1532991D01*
X-64414Y-1537563D01*
X-52882Y-1540662D01*
X-41097Y-1541881D01*
X-29209Y-1541475D01*
X-17475Y-1539341D01*
X-9347Y-1536496D01*
X-6045Y-1535988D01*
X259943Y-1535988D01*
X263906Y-1536852D01*
X265785Y-1537563D01*
X277317Y-1540662D01*
X289102Y-1541881D01*
X300990Y-1541475D01*
X312724Y-1539341D01*
X323951Y-1535480D01*
X334518Y-1530045D01*
X344220Y-1523136D01*
X352755Y-1514906D01*
X360019Y-1505407D01*
X365861Y-1495044D01*
X369062Y-1486662D01*
X371246Y-1483258D01*
X374548Y-1480972D01*
X378460Y-1480159D01*
X382422Y-1480870D01*
X385775Y-1483156D01*
X696315Y-1793697D01*
X698550Y-1796948D01*
X699312Y-1800860D01*
X699312Y-1999132D01*
X698855Y-2002078D01*
X695198Y-2014270D01*
X693470Y-2026005D01*
X693470Y-2037994D01*
X695198Y-2049729D01*
X698601Y-2061057D01*
X703630Y-2071827D01*
X710234Y-2081784D01*
X718159Y-2090674D01*
X727303Y-2098243D01*
X737463Y-2104491D01*
X748385Y-2109063D01*
X759917Y-2112162D01*
G37*
G36*
X-3898900Y-1940407D02*
G01*
X-3879240Y-1939442D01*
X-3859784Y-1936496D01*
X-3840683Y-1931720D01*
X-3822192Y-1925167D01*
X-3804361Y-1916684D01*
X-3787495Y-1906625D01*
X-3771696Y-1894890D01*
X-3757117Y-1881682D01*
X-3743909Y-1867103D01*
X-3732174Y-1851253D01*
X-3722065Y-1834388D01*
X-3713683Y-1816658D01*
X-3707028Y-1798116D01*
X-3702253Y-1778965D01*
X-3699357Y-1759559D01*
X-3698392Y-1739849D01*
X-3699357Y-1720240D01*
X-3702253Y-1700784D01*
X-3707028Y-1681683D01*
X-3713683Y-1663141D01*
X-3722065Y-1645361D01*
X-3732174Y-1628495D01*
X-3743909Y-1612696D01*
X-3757117Y-1598117D01*
X-3771696Y-1584909D01*
X-3787495Y-1573174D01*
X-3804361Y-1563065D01*
X-3822192Y-1554632D01*
X-3840683Y-1548079D01*
X-3859784Y-1543304D01*
X-3879240Y-1540357D01*
X-3898900Y-1539392D01*
X-3918559Y-1540357D01*
X-3938015Y-1543304D01*
X-3957065Y-1548079D01*
X-3975608Y-1554632D01*
X-3993387Y-1563065D01*
X-4010253Y-1573174D01*
X-4026052Y-1584909D01*
X-4040632Y-1598117D01*
X-4053890Y-1612696D01*
X-4065574Y-1628495D01*
X-4075684Y-1645361D01*
X-4084116Y-1663141D01*
X-4090720Y-1681683D01*
X-4095546Y-1700784D01*
X-4098391Y-1720240D01*
X-4099356Y-1739849D01*
X-4098391Y-1759559D01*
X-4095546Y-1778965D01*
X-4090720Y-1798116D01*
X-4084116Y-1816658D01*
X-4075684Y-1834388D01*
X-4065574Y-1851253D01*
X-4053890Y-1867103D01*
X-4040632Y-1881682D01*
X-4026052Y-1894890D01*
X-4010253Y-1906625D01*
X-3993387Y-1916684D01*
X-3975608Y-1925167D01*
X-3957065Y-1931720D01*
X-3938015Y-1936496D01*
X-3918559Y-1939442D01*
G37*
G36*
X-569468Y-1915820D02*
G01*
X-370332Y-1915820D01*
X-361137Y-1915007D01*
X-352653Y-1912670D01*
X-344678Y-1909013D01*
X-337464Y-1903933D01*
X-331266Y-1897735D01*
X-326186Y-1890572D01*
X-324612Y-1887118D01*
X-321919Y-1883613D01*
X-318008Y-1881530D01*
X-313588Y-1881378D01*
X-309524Y-1883105D01*
X-295960Y-1892706D01*
X-281178Y-1900834D01*
X-272237Y-1904593D01*
X-272237Y-1821688D01*
X-309219Y-1821688D01*
X-313131Y-1820824D01*
X-316433Y-1818690D01*
X-318617Y-1815338D01*
X-319379Y-1811477D01*
X-319379Y-1719122D01*
X-318617Y-1715211D01*
X-316433Y-1711909D01*
X-313131Y-1709724D01*
X-309219Y-1708912D01*
X-272237Y-1708912D01*
X-272237Y-1626006D01*
X-281178Y-1629765D01*
X-295960Y-1637893D01*
X-309524Y-1647494D01*
X-313588Y-1649222D01*
X-318008Y-1649018D01*
X-321919Y-1646986D01*
X-324612Y-1643481D01*
X-326186Y-1640027D01*
X-331266Y-1632864D01*
X-337464Y-1626666D01*
X-344678Y-1621586D01*
X-352653Y-1617929D01*
X-361137Y-1615592D01*
X-370332Y-1614779D01*
X-569468Y-1614779D01*
X-578662Y-1615592D01*
X-587146Y-1617929D01*
X-595122Y-1621586D01*
X-602335Y-1626666D01*
X-608533Y-1632864D01*
X-613613Y-1640027D01*
X-617321Y-1648002D01*
X-619607Y-1656537D01*
X-620369Y-1665782D01*
X-620369Y-1864817D01*
X-619607Y-1874012D01*
X-617321Y-1882597D01*
X-613613Y-1890572D01*
X-608533Y-1897735D01*
X-602335Y-1903933D01*
X-595122Y-1909013D01*
X-587146Y-1912670D01*
X-578662Y-1915007D01*
G37*
G36*
X38100Y-1915820D02*
G01*
X54965Y-1914855D01*
X71577Y-1912010D01*
X87782Y-1907286D01*
X103378Y-1900834D01*
X118160Y-1892706D01*
X131927Y-1882902D01*
X144526Y-1871675D01*
X155752Y-1859076D01*
X156819Y-1857603D01*
X159613Y-1854911D01*
X163169Y-1853488D01*
X167030Y-1853488D01*
X170586Y-1854911D01*
X173380Y-1857603D01*
X174447Y-1859076D01*
X185674Y-1871675D01*
X198272Y-1882902D01*
X212039Y-1892706D01*
X226821Y-1900834D01*
X242417Y-1907286D01*
X258622Y-1912010D01*
X275234Y-1914855D01*
X292100Y-1915820D01*
X308965Y-1914855D01*
X325577Y-1912010D01*
X341782Y-1907286D01*
X357378Y-1900834D01*
X372160Y-1892706D01*
X385927Y-1882902D01*
X398526Y-1871675D01*
X409752Y-1859076D01*
X419506Y-1845310D01*
X427685Y-1830578D01*
X434136Y-1814982D01*
X438810Y-1798777D01*
X441655Y-1782165D01*
X442569Y-1765249D01*
X441655Y-1748434D01*
X438810Y-1731822D01*
X434136Y-1715617D01*
X427685Y-1700022D01*
X419506Y-1685188D01*
X409752Y-1671472D01*
X398526Y-1658924D01*
X385927Y-1647698D01*
X372160Y-1637893D01*
X357378Y-1629765D01*
X341782Y-1623263D01*
X325577Y-1618589D01*
X308965Y-1615744D01*
X292100Y-1614779D01*
X275234Y-1615744D01*
X258622Y-1618589D01*
X242417Y-1623263D01*
X226821Y-1629765D01*
X212039Y-1637893D01*
X198272Y-1647698D01*
X185674Y-1658924D01*
X174447Y-1671472D01*
X173380Y-1672945D01*
X170586Y-1675638D01*
X167030Y-1677111D01*
X163169Y-1677111D01*
X159613Y-1675638D01*
X156819Y-1672945D01*
X155752Y-1671472D01*
X144526Y-1658924D01*
X131927Y-1647698D01*
X118160Y-1637893D01*
X103378Y-1629765D01*
X87782Y-1623263D01*
X71577Y-1618589D01*
X54965Y-1615744D01*
X38100Y-1614779D01*
X21234Y-1615744D01*
X4622Y-1618589D01*
X-11582Y-1623263D01*
X-27178Y-1629765D01*
X-41960Y-1637893D01*
X-55727Y-1647698D01*
X-68326Y-1658924D01*
X-79552Y-1671472D01*
X-80619Y-1672945D01*
X-83413Y-1675638D01*
X-86969Y-1677111D01*
X-90830Y-1677111D01*
X-94386Y-1675638D01*
X-97180Y-1672945D01*
X-98247Y-1671472D01*
X-109474Y-1658924D01*
X-122072Y-1647698D01*
X-135839Y-1637893D01*
X-150622Y-1629765D01*
X-159562Y-1626006D01*
X-159562Y-1708912D01*
X-115519Y-1708912D01*
X-111861Y-1709674D01*
X-108661Y-1711655D01*
X-106426Y-1714601D01*
X-105410Y-1718157D01*
X-105765Y-1721967D01*
X-108610Y-1731822D01*
X-111455Y-1748434D01*
X-112369Y-1765249D01*
X-111455Y-1782165D01*
X-108610Y-1798777D01*
X-105765Y-1808632D01*
X-105410Y-1812442D01*
X-106426Y-1815947D01*
X-108661Y-1818944D01*
X-111861Y-1820925D01*
X-115519Y-1821688D01*
X-159562Y-1821688D01*
X-159562Y-1904593D01*
X-150622Y-1900834D01*
X-135839Y-1892706D01*
X-122072Y-1882902D01*
X-109474Y-1871675D01*
X-98247Y-1859076D01*
X-97180Y-1857603D01*
X-94386Y-1854911D01*
X-90830Y-1853488D01*
X-86969Y-1853488D01*
X-83413Y-1854911D01*
X-80619Y-1857603D01*
X-79552Y-1859076D01*
X-68326Y-1871675D01*
X-55727Y-1882902D01*
X-41960Y-1892706D01*
X-27178Y-1900834D01*
X-11582Y-1907286D01*
X4622Y-1912010D01*
X21234Y-1914855D01*
G37*
G36*
X-2286000Y-1800707D02*
G01*
X-2266340Y-1799742D01*
X-2246884Y-1796796D01*
X-2227783Y-1792020D01*
X-2209292Y-1785467D01*
X-2191512Y-1776984D01*
X-2174595Y-1766925D01*
X-2158796Y-1755190D01*
X-2144217Y-1741982D01*
X-2131009Y-1727403D01*
X-2119274Y-1711553D01*
X-2109165Y-1694688D01*
X-2100783Y-1676958D01*
X-2094128Y-1658416D01*
X-2089353Y-1639265D01*
X-2086457Y-1619859D01*
X-2085492Y-1600250D01*
X-2086457Y-1580540D01*
X-2089353Y-1561084D01*
X-2094128Y-1541983D01*
X-2100783Y-1523441D01*
X-2109165Y-1505661D01*
X-2119274Y-1488795D01*
X-2131009Y-1472996D01*
X-2144217Y-1458417D01*
X-2158796Y-1445209D01*
X-2174595Y-1433474D01*
X-2191512Y-1423365D01*
X-2209292Y-1414932D01*
X-2227783Y-1408379D01*
X-2246884Y-1403604D01*
X-2266340Y-1400657D01*
X-2286000Y-1399692D01*
X-2305659Y-1400657D01*
X-2325116Y-1403604D01*
X-2344216Y-1408379D01*
X-2362708Y-1414932D01*
X-2380488Y-1423365D01*
X-2397353Y-1433474D01*
X-2413203Y-1445209D01*
X-2427782Y-1458417D01*
X-2440990Y-1472996D01*
X-2452674Y-1488795D01*
X-2462784Y-1505661D01*
X-2471216Y-1523441D01*
X-2477820Y-1541983D01*
X-2482646Y-1561084D01*
X-2485491Y-1580540D01*
X-2486456Y-1600250D01*
X-2485491Y-1619859D01*
X-2482646Y-1639265D01*
X-2477820Y-1658416D01*
X-2471216Y-1676958D01*
X-2462784Y-1694688D01*
X-2452674Y-1711553D01*
X-2440990Y-1727403D01*
X-2427782Y-1741982D01*
X-2413203Y-1755190D01*
X-2397353Y-1766925D01*
X-2380488Y-1776984D01*
X-2362708Y-1785467D01*
X-2344216Y-1792020D01*
X-2325116Y-1796796D01*
X-2305659Y-1799742D01*
G37*
G36*
X-1663700Y-1800707D02*
G01*
X-1644040Y-1799742D01*
X-1624584Y-1796796D01*
X-1605483Y-1792020D01*
X-1586992Y-1785467D01*
X-1569212Y-1776984D01*
X-1552295Y-1766925D01*
X-1536496Y-1755190D01*
X-1521917Y-1741982D01*
X-1508709Y-1727403D01*
X-1496974Y-1711553D01*
X-1486865Y-1694688D01*
X-1478483Y-1676958D01*
X-1471828Y-1658416D01*
X-1467053Y-1639265D01*
X-1464157Y-1619859D01*
X-1463192Y-1600250D01*
X-1464157Y-1580540D01*
X-1467053Y-1561084D01*
X-1471828Y-1541983D01*
X-1478483Y-1523441D01*
X-1486865Y-1505661D01*
X-1496974Y-1488795D01*
X-1508709Y-1472996D01*
X-1521917Y-1458417D01*
X-1536496Y-1445209D01*
X-1552295Y-1433474D01*
X-1569212Y-1423365D01*
X-1586992Y-1414932D01*
X-1605483Y-1408379D01*
X-1624584Y-1403604D01*
X-1644040Y-1400657D01*
X-1663700Y-1399692D01*
X-1683359Y-1400657D01*
X-1702816Y-1403604D01*
X-1721916Y-1408379D01*
X-1740407Y-1414932D01*
X-1758188Y-1423365D01*
X-1775053Y-1433474D01*
X-1790903Y-1445209D01*
X-1805482Y-1458417D01*
X-1818690Y-1472996D01*
X-1830374Y-1488795D01*
X-1840484Y-1505661D01*
X-1848916Y-1523441D01*
X-1855520Y-1541983D01*
X-1860346Y-1561084D01*
X-1863191Y-1580540D01*
X-1864156Y-1600250D01*
X-1863191Y-1619859D01*
X-1860346Y-1639265D01*
X-1855520Y-1658416D01*
X-1848916Y-1676958D01*
X-1840484Y-1694688D01*
X-1830374Y-1711553D01*
X-1818690Y-1727403D01*
X-1805482Y-1741982D01*
X-1790903Y-1755190D01*
X-1775053Y-1766925D01*
X-1758188Y-1776984D01*
X-1740407Y-1785467D01*
X-1721916Y-1792020D01*
X-1702816Y-1796796D01*
X-1683359Y-1799742D01*
G37*
G36*
X-306882Y-1322984D02*
G01*
X-150317Y-1322984D01*
X-141122Y-1322222D01*
X-132588Y-1319987D01*
X-124612Y-1316228D01*
X-117449Y-1311198D01*
X-111201Y-1304950D01*
X-106172Y-1297736D01*
X-102463Y-1289761D01*
X-100177Y-1281328D01*
X-99364Y-1272133D01*
X-99364Y-1115466D01*
X-100177Y-1106271D01*
X-102463Y-1097788D01*
X-106172Y-1089863D01*
X-111201Y-1082649D01*
X-117449Y-1076401D01*
X-124612Y-1071372D01*
X-132588Y-1067612D01*
X-141122Y-1065326D01*
X-150317Y-1064564D01*
X-306882Y-1064564D01*
X-316077Y-1065326D01*
X-324612Y-1067612D01*
X-332587Y-1071372D01*
X-339750Y-1076401D01*
X-345998Y-1082649D01*
X-351028Y-1089863D01*
X-354736Y-1097788D01*
X-357022Y-1106271D01*
X-357835Y-1115568D01*
X-359054Y-1119632D01*
X-361797Y-1122781D01*
X-365556Y-1124610D01*
X-369773Y-1124712D01*
X-373634Y-1123188D01*
X-376580Y-1120140D01*
X-377596Y-1118463D01*
X-387248Y-1106627D01*
X-398221Y-1095908D01*
X-410413Y-1086612D01*
X-423570Y-1078788D01*
X-436880Y-1072946D01*
X-436880Y-1148080D01*
X-367995Y-1148080D01*
X-364083Y-1148842D01*
X-360832Y-1151077D01*
X-358597Y-1154379D01*
X-357835Y-1158240D01*
X-357835Y-1229309D01*
X-358597Y-1233220D01*
X-360832Y-1236522D01*
X-364083Y-1238707D01*
X-367995Y-1239469D01*
X-436880Y-1239469D01*
X-436880Y-1314399D01*
X-430530Y-1312062D01*
X-416864Y-1305052D01*
X-404215Y-1296517D01*
X-392582Y-1286510D01*
X-382270Y-1275181D01*
X-376224Y-1266799D01*
X-373227Y-1264005D01*
X-369366Y-1262634D01*
X-365302Y-1262938D01*
X-361645Y-1264818D01*
X-359003Y-1267917D01*
X-357835Y-1271828D01*
X-357022Y-1281328D01*
X-354736Y-1289761D01*
X-351028Y-1297736D01*
X-345998Y-1304950D01*
X-339750Y-1311198D01*
X-332587Y-1316228D01*
X-324612Y-1319987D01*
X-316077Y-1322222D01*
G37*
G36*
X-528320Y-1314399D02*
G01*
X-528320Y-1239469D01*
X-603250Y-1239469D01*
X-599236Y-1249324D01*
X-591870Y-1262786D01*
X-582930Y-1275181D01*
X-572617Y-1286510D01*
X-560984Y-1296517D01*
X-548335Y-1305052D01*
X-534670Y-1312062D01*
G37*
G36*
X-603300Y-1148080D02*
G01*
X-528320Y-1148080D01*
X-528320Y-1072946D01*
X-541629Y-1078788D01*
X-554786Y-1086612D01*
X-566978Y-1095908D01*
X-577951Y-1106627D01*
X-587603Y-1118463D01*
X-595782Y-1131417D01*
X-602335Y-1145184D01*
G37*
G36*
X-3898900Y-1040485D02*
G01*
X-3879240Y-1039520D01*
X-3859784Y-1036624D01*
X-3840683Y-1031849D01*
X-3822192Y-1025194D01*
X-3804361Y-1016762D01*
X-3787495Y-1006652D01*
X-3771696Y-994918D01*
X-3757117Y-981710D01*
X-3743909Y-967130D01*
X-3732174Y-951331D01*
X-3722065Y-934516D01*
X-3713683Y-916686D01*
X-3707028Y-898144D01*
X-3702253Y-879043D01*
X-3699357Y-859586D01*
X-3698392Y-839927D01*
X-3699357Y-820369D01*
X-3702253Y-800862D01*
X-3707028Y-781761D01*
X-3713683Y-763219D01*
X-3722065Y-745490D01*
X-3732174Y-728573D01*
X-3743909Y-712825D01*
X-3757117Y-698246D01*
X-3771696Y-685038D01*
X-3787495Y-673303D01*
X-3804361Y-663143D01*
X-3822192Y-654761D01*
X-3840683Y-648106D01*
X-3859784Y-643382D01*
X-3879240Y-640486D01*
X-3898900Y-639521D01*
X-3918559Y-640486D01*
X-3938015Y-643382D01*
X-3957065Y-648106D01*
X-3975608Y-654761D01*
X-3993387Y-663143D01*
X-4010253Y-673303D01*
X-4026052Y-685038D01*
X-4040632Y-698246D01*
X-4053890Y-712825D01*
X-4065574Y-728573D01*
X-4075684Y-745490D01*
X-4084116Y-763219D01*
X-4090720Y-781761D01*
X-4095546Y-800862D01*
X-4098391Y-820369D01*
X-4099356Y-839927D01*
X-4098391Y-859586D01*
X-4095546Y-879043D01*
X-4090720Y-898144D01*
X-4084116Y-916686D01*
X-4075684Y-934516D01*
X-4065574Y-951331D01*
X-4053890Y-967130D01*
X-4040632Y-981710D01*
X-4026052Y-994918D01*
X-4010253Y-1006652D01*
X-3993387Y-1016762D01*
X-3975608Y-1025194D01*
X-3957065Y-1031849D01*
X-3938015Y-1036624D01*
X-3918559Y-1039520D01*
G37*
G36*
X-3898900Y59639D02*
G01*
X-3879240Y60604D01*
X-3859784Y63449D01*
X-3840683Y68224D01*
X-3822192Y74879D01*
X-3804361Y83261D01*
X-3787495Y93421D01*
X-3771696Y105156D01*
X-3757117Y118364D01*
X-3743909Y132943D01*
X-3732174Y148742D01*
X-3722065Y165608D01*
X-3713683Y183388D01*
X-3707028Y201930D01*
X-3702253Y221030D01*
X-3699357Y240487D01*
X-3698392Y260096D01*
X-3699357Y279704D01*
X-3702253Y299161D01*
X-3707028Y318262D01*
X-3713683Y336804D01*
X-3722065Y354634D01*
X-3732174Y371500D01*
X-3743909Y387248D01*
X-3757117Y401828D01*
X-3771696Y415035D01*
X-3787495Y426770D01*
X-3804361Y436930D01*
X-3822192Y445312D01*
X-3840683Y451967D01*
X-3859784Y456742D01*
X-3879240Y459587D01*
X-3898900Y460552D01*
X-3918559Y459587D01*
X-3938015Y456742D01*
X-3957065Y451967D01*
X-3975608Y445312D01*
X-3993387Y436930D01*
X-4010253Y426770D01*
X-4026052Y415035D01*
X-4040632Y401828D01*
X-4053890Y387248D01*
X-4065574Y371500D01*
X-4075684Y354634D01*
X-4084116Y336804D01*
X-4090720Y318262D01*
X-4095546Y299161D01*
X-4098391Y279704D01*
X-4099356Y260096D01*
X-4098391Y240487D01*
X-4095546Y221030D01*
X-4090720Y201930D01*
X-4084116Y183388D01*
X-4075684Y165608D01*
X-4065574Y148742D01*
X-4053890Y132943D01*
X-4040632Y118364D01*
X-4026052Y105156D01*
X-4010253Y93421D01*
X-3993387Y83261D01*
X-3975608Y74879D01*
X-3957065Y68224D01*
X-3938015Y63449D01*
X-3918559Y60604D01*
G37*
G36*
X-3817518Y577189D02*
G01*
X-3804361Y583438D01*
X-3787495Y593547D01*
X-3771696Y605282D01*
X-3757117Y618490D01*
X-3743909Y633069D01*
X-3732174Y648868D01*
X-3722065Y665683D01*
X-3715867Y678840D01*
X-3817518Y678840D01*
G37*
G36*
X-3980230Y577189D02*
G01*
X-3980230Y678840D01*
X-4081932Y678840D01*
X-4075684Y665683D01*
X-4065574Y648868D01*
X-4053890Y633069D01*
X-4040632Y618490D01*
X-4026052Y605282D01*
X-4010253Y593547D01*
X-3993387Y583438D01*
G37*
G36*
X-434797Y744118D02*
G01*
X-422909Y744524D01*
X-411175Y746658D01*
X-399948Y750519D01*
X-389382Y755954D01*
X-379679Y762863D01*
X-371144Y771093D01*
X-363880Y780592D01*
X-358038Y790956D01*
X-353771Y801979D01*
X-351180Y813612D01*
X-350316Y825449D01*
X-351180Y837387D01*
X-353771Y848969D01*
X-355650Y853846D01*
X-356311Y857453D01*
X-356311Y1276146D01*
X-355650Y1279804D01*
X-353771Y1284579D01*
X-351180Y1296212D01*
X-350316Y1308049D01*
X-351180Y1319987D01*
X-353771Y1331569D01*
X-358038Y1342644D01*
X-363880Y1353058D01*
X-371144Y1362506D01*
X-379679Y1370736D01*
X-389382Y1377645D01*
X-399948Y1383080D01*
X-411175Y1386941D01*
X-422909Y1389075D01*
X-434797Y1389481D01*
X-446582Y1388211D01*
X-458114Y1385163D01*
X-469036Y1380591D01*
X-479196Y1374343D01*
X-488340Y1366774D01*
X-496265Y1357934D01*
X-502869Y1347927D01*
X-507898Y1337157D01*
X-511301Y1325829D01*
X-513029Y1314094D01*
X-513029Y1302105D01*
X-511301Y1290370D01*
X-507746Y1278483D01*
X-507288Y1275537D01*
X-507288Y858062D01*
X-507746Y855116D01*
X-511301Y843229D01*
X-513029Y831494D01*
X-513029Y819505D01*
X-511301Y807770D01*
X-507898Y796442D01*
X-502869Y785672D01*
X-496265Y775716D01*
X-488340Y766826D01*
X-479196Y759256D01*
X-469036Y753008D01*
X-458114Y748436D01*
X-446582Y745337D01*
G37*
G36*
X-3817518Y841552D02*
G01*
X-3715867Y841552D01*
X-3722065Y854710D01*
X-3732174Y871626D01*
X-3743909Y887374D01*
X-3757117Y901953D01*
X-3771696Y915162D01*
X-3787495Y926896D01*
X-3804361Y937056D01*
X-3817518Y943305D01*
G37*
G36*
X-4081932Y841552D02*
G01*
X-3980230Y841552D01*
X-3980230Y943305D01*
X-3993387Y937056D01*
X-4010253Y926896D01*
X-4026052Y915162D01*
X-4040632Y901953D01*
X-4053890Y887374D01*
X-4065574Y871626D01*
X-4075684Y854710D01*
G37*
G36*
X-1092200Y1577492D02*
G01*
X-1072540Y1578457D01*
X-1053084Y1581404D01*
X-1033983Y1586179D01*
X-1015492Y1592732D01*
X-997712Y1601216D01*
X-980795Y1611274D01*
X-964996Y1623009D01*
X-950417Y1636217D01*
X-937209Y1650796D01*
X-925474Y1666646D01*
X-915365Y1683512D01*
X-906983Y1701241D01*
X-900328Y1719783D01*
X-895553Y1738934D01*
X-892657Y1758340D01*
X-891692Y1777949D01*
X-892657Y1797659D01*
X-895553Y1817116D01*
X-900328Y1836216D01*
X-906983Y1854758D01*
X-915365Y1872538D01*
X-925474Y1889404D01*
X-937209Y1905203D01*
X-950417Y1919782D01*
X-964996Y1932990D01*
X-980795Y1944725D01*
X-997712Y1954834D01*
X-1015492Y1963267D01*
X-1033983Y1969820D01*
X-1053084Y1974596D01*
X-1072540Y1977542D01*
X-1092200Y1978507D01*
X-1111859Y1977542D01*
X-1131316Y1974596D01*
X-1150416Y1969820D01*
X-1168908Y1963267D01*
X-1186688Y1954834D01*
X-1203553Y1944725D01*
X-1219403Y1932990D01*
X-1233982Y1919782D01*
X-1247190Y1905203D01*
X-1258874Y1889404D01*
X-1268984Y1872538D01*
X-1277416Y1854758D01*
X-1284020Y1836216D01*
X-1288846Y1817116D01*
X-1291691Y1797659D01*
X-1292656Y1777949D01*
X-1291691Y1758340D01*
X-1288846Y1738934D01*
X-1284020Y1719783D01*
X-1277416Y1701241D01*
X-1268984Y1683512D01*
X-1258874Y1666646D01*
X-1247190Y1650796D01*
X-1233982Y1636217D01*
X-1219403Y1623009D01*
X-1203553Y1611274D01*
X-1186688Y1601216D01*
X-1168908Y1592732D01*
X-1150416Y1586179D01*
X-1131316Y1581404D01*
X-1111859Y1578457D01*
G37*
G36*
X-2776169Y1582267D02*
G01*
X-2763012Y1588516D01*
X-2746095Y1598574D01*
X-2730296Y1610309D01*
X-2715717Y1623517D01*
X-2702509Y1638096D01*
X-2690774Y1653946D01*
X-2680665Y1670812D01*
X-2674467Y1683969D01*
X-2776169Y1683969D01*
G37*
G36*
X-2938830Y1582267D02*
G01*
X-2938830Y1683969D01*
X-3040532Y1683969D01*
X-3034284Y1670812D01*
X-3024174Y1653946D01*
X-3012490Y1638096D01*
X-2999282Y1623517D01*
X-2984703Y1610309D01*
X-2968853Y1598574D01*
X-2951988Y1588516D01*
G37*
G36*
X1977999Y1646478D02*
G01*
X1998776Y1647443D01*
X2019401Y1650339D01*
X2039670Y1655165D01*
X2059432Y1661769D01*
X2078482Y1670202D01*
X2096668Y1680311D01*
X2113838Y1692097D01*
X2129891Y1705406D01*
X2144623Y1720138D01*
X2157933Y1736140D01*
X2169668Y1753311D01*
X2179828Y1771497D01*
X2188210Y1790547D01*
X2194864Y1810308D01*
X2199640Y1830527D01*
X2202484Y1851152D01*
X2203450Y1872030D01*
X2202484Y1892858D01*
X2199640Y1913483D01*
X2194864Y1933702D01*
X2188210Y1953463D01*
X2179828Y1972513D01*
X2169668Y1990750D01*
X2157933Y2007870D01*
X2144623Y2023922D01*
X2129891Y2038604D01*
X2113838Y2051913D01*
X2096668Y2063699D01*
X2078482Y2073808D01*
X2059432Y2082241D01*
X2039670Y2088896D01*
X2019401Y2093671D01*
X1998776Y2096566D01*
X1977999Y2097532D01*
X1957171Y2096566D01*
X1936546Y2093671D01*
X1916277Y2088896D01*
X1896516Y2082241D01*
X1877466Y2073808D01*
X1859280Y2063699D01*
X1842109Y2051913D01*
X1826056Y2038604D01*
X1811324Y2023922D01*
X1798015Y2007870D01*
X1786280Y1990750D01*
X1776120Y1972513D01*
X1767738Y1953463D01*
X1761083Y1933702D01*
X1756308Y1913483D01*
X1753463Y1892858D01*
X1752498Y1872030D01*
X1753463Y1851152D01*
X1756308Y1830527D01*
X1761083Y1810308D01*
X1767738Y1790547D01*
X1776120Y1771497D01*
X1786280Y1753311D01*
X1798015Y1736140D01*
X1811324Y1720138D01*
X1826056Y1705406D01*
X1842109Y1692097D01*
X1859280Y1680311D01*
X1877466Y1670202D01*
X1896516Y1661769D01*
X1916277Y1655165D01*
X1936546Y1650339D01*
X1957171Y1647443D01*
G37*
G36*
X-4880000Y1646478D02*
G01*
X-4859172Y1647443D01*
X-4838547Y1650339D01*
X-4818278Y1655165D01*
X-4798568Y1661769D01*
X-4779518Y1670202D01*
X-4761280Y1680311D01*
X-4744110Y1692097D01*
X-4728108Y1705406D01*
X-4713376Y1720138D01*
X-4700066Y1736140D01*
X-4688281Y1753311D01*
X-4678172Y1771497D01*
X-4669739Y1790547D01*
X-4663135Y1810308D01*
X-4658360Y1830527D01*
X-4655464Y1851152D01*
X-4654499Y1872030D01*
X-4655464Y1892858D01*
X-4658360Y1913483D01*
X-4663135Y1933702D01*
X-4669739Y1953463D01*
X-4678172Y1972513D01*
X-4688281Y1990750D01*
X-4700066Y2007870D01*
X-4713376Y2023922D01*
X-4728108Y2038604D01*
X-4744110Y2051913D01*
X-4761280Y2063699D01*
X-4779518Y2073808D01*
X-4798568Y2082241D01*
X-4818278Y2088896D01*
X-4838547Y2093671D01*
X-4859172Y2096566D01*
X-4880000Y2097532D01*
X-4900828Y2096566D01*
X-4921453Y2093671D01*
X-4941722Y2088896D01*
X-4961432Y2082241D01*
X-4980482Y2073808D01*
X-4998720Y2063699D01*
X-5015890Y2051913D01*
X-5031892Y2038604D01*
X-5046624Y2023922D01*
X-5059934Y2007870D01*
X-5071719Y1990750D01*
X-5081828Y1972513D01*
X-5090261Y1953463D01*
X-5096865Y1933702D01*
X-5101640Y1913483D01*
X-5104536Y1892858D01*
X-5105501Y1872030D01*
X-5104536Y1851152D01*
X-5101640Y1830527D01*
X-5096865Y1810308D01*
X-5090261Y1790547D01*
X-5081828Y1771497D01*
X-5071719Y1753311D01*
X-5059934Y1736140D01*
X-5046624Y1720138D01*
X-5031892Y1705406D01*
X-5015890Y1692097D01*
X-4998720Y1680311D01*
X-4980482Y1670202D01*
X-4961432Y1661769D01*
X-4941722Y1655165D01*
X-4921453Y1650339D01*
X-4900828Y1647443D01*
G37*
G36*
X-2776169Y1846630D02*
G01*
X-2674467Y1846630D01*
X-2680665Y1859838D01*
X-2690774Y1876704D01*
X-2702509Y1892503D01*
X-2715717Y1907082D01*
X-2730296Y1920290D01*
X-2746095Y1932025D01*
X-2763012Y1942134D01*
X-2776169Y1948332D01*
G37*
G36*
X-3040532Y1846630D02*
G01*
X-2938830Y1846630D01*
X-2938830Y1948332D01*
X-2951988Y1942134D01*
X-2968853Y1932025D01*
X-2984703Y1920290D01*
X-2999282Y1907082D01*
X-3012490Y1892503D01*
X-3024174Y1876704D01*
X-3034284Y1859838D01*
G37*

%LPD*%
D10*
X266700Y-2705100D02*
G01*
X1104892Y-2705100D01*
X1104900Y-2705092D01*
X-431800Y1308100D02*
G01*
X-431800Y825502D01*
X-431800Y825502D01*
X12700Y-2603500D02*
G01*
X1206578Y-2603500D01*
X1206586Y-2603492D01*
X317500Y-1333500D02*
G01*
X342900Y-1333500D01*
X774799Y-1765396D01*
X774799Y-2031974D01*
X-38100Y-1460497D02*
G01*
X292097Y-1460497D01*
X292100Y-1460500D01*
D11*
G01*
X-228600Y-1193800D03*
D12*
G01*
X-482600Y-1193800D03*
G01*
X774700Y-2362200D03*
G01*
X520700Y-2362200D03*
G01*
X266700Y-2362200D03*
G01*
X12700Y-2362200D03*
G01*
X-241300Y-2362200D03*
D11*
G01*
X-495300Y-2362200D03*
D13*
G01*
X-2286000Y-2489200D03*
G01*
X-2794000Y-2489200D03*
G01*
X-1244600Y-2489200D03*
G01*
X-1752600Y-2489200D03*
D14*
G01*
X-3898900Y-1739900D03*
G01*
X-3898900Y-839978D03*
G01*
X-3898900Y260096D03*
G01*
X-3898900Y760221D03*
G01*
X-2286000Y-1600200D03*
G01*
X-1663700Y-1600200D03*
G01*
X-2857500Y1765300D03*
G01*
X-1092200Y1778000D03*
D15*
G01*
X-469900Y-1765300D03*
D16*
G01*
X-215900Y-1765300D03*
G01*
X38100Y-1765300D03*
G01*
X292100Y-1765300D03*
G01*
X-495300Y-2921000D03*
G01*
X-241300Y-2921000D03*
G01*
X12700Y-2921000D03*
G01*
X266700Y-2921000D03*
D15*
G01*
X520700Y-2921000D03*
D17*
G01*
X292100Y-1460500D03*
G01*
X-38100Y-1460500D03*
G01*
X-431800Y1308100D03*
G01*
X-431800Y825500D03*
G01*
X317500Y-1333500D03*
G01*
X774700Y-2032000D03*
G01*
X12700Y-2603500D03*
G01*
X266700Y-2705100D03*
G01*
X1104900Y-2705100D03*
G01*
X1206601Y-2603474D03*
G01*
X190500Y431800D03*
M02*
