G04 Layer: TopLayer*
G04 EasyEDA v6.5.46, 2024-09-20 08:35:55*
G04 a7edf335d4994be98b658af7e20cc970,64d3660010d149859882a44b8c89f403,10*
G04 Gerber Generator version 0.2*
G04 Scale: 100 percent, Rotated: No, Reflected: No *
G04 Dimensions in millimeters *
G04 leading zeros omitted , absolute positions ,4 integer and 5 decimal *
%FSLAX45Y45*%
%MOMM*%

%AMMACRO1*21,1,$1,$2,0,0,$3*%
%ADD10C,1.0000*%
%ADD11C,0.5000*%
%ADD12O,1.6839946000000001X0.4480052*%
%ADD13O,0.4480052X1.6839946000000001*%
%ADD14MACRO1,1.35X1.41X-90.0000*%
%ADD15R,0.9800X3.0000*%
%ADD16MACRO1,1.377X1.1325X-90.0000*%
%ADD17MACRO1,1.35X1.41X0.0000*%
%ADD18R,1.3500X1.4100*%
%ADD19R,1.5748X1.5748*%
%ADD20C,1.5748*%
%ADD21C,2.5000*%
%ADD22C,3.0000*%
%ADD23R,2.0000X2.0000*%
%ADD24C,2.0000*%
%ADD25C,0.6200*%
%ADD26C,0.0123*%

%LPD*%
G36*
X-5199532Y-3142996D02*
G01*
X-5203444Y-3142183D01*
X-5206695Y-3139998D01*
X-5208930Y-3136696D01*
X-5209692Y-3132785D01*
X-5209692Y2145080D01*
X-5208930Y2148992D01*
X-5206695Y2152243D01*
X-5203444Y2154428D01*
X-5199532Y2155240D01*
X2378303Y2155240D01*
X2382215Y2154428D01*
X2385466Y2152243D01*
X2387701Y2148992D01*
X2388463Y2145080D01*
X2388463Y-3132785D01*
X2387701Y-3136696D01*
X2385466Y-3139998D01*
X2382215Y-3142183D01*
X2378303Y-3142996D01*
G37*

%LPC*%
G36*
X1977999Y-3103321D02*
G01*
X1998776Y-3102356D01*
X2019401Y-3099460D01*
X2039670Y-3094634D01*
X2059432Y-3088030D01*
X2078482Y-3079597D01*
X2096668Y-3069488D01*
X2113838Y-3057702D01*
X2129891Y-3044393D01*
X2144623Y-3029661D01*
X2157933Y-3013659D01*
X2169668Y-2996488D01*
X2179828Y-2978302D01*
X2188210Y-2959252D01*
X2194864Y-2939491D01*
X2199640Y-2919272D01*
X2202484Y-2898648D01*
X2203450Y-2877769D01*
X2202484Y-2856941D01*
X2199640Y-2836316D01*
X2194864Y-2816098D01*
X2188210Y-2796336D01*
X2179828Y-2777286D01*
X2169668Y-2759049D01*
X2157933Y-2741930D01*
X2144623Y-2725877D01*
X2129891Y-2711196D01*
X2113838Y-2697886D01*
X2096668Y-2686100D01*
X2078482Y-2675991D01*
X2059432Y-2667558D01*
X2039670Y-2660904D01*
X2019401Y-2656128D01*
X1998776Y-2653233D01*
X1977999Y-2652268D01*
X1957171Y-2653233D01*
X1936546Y-2656128D01*
X1916277Y-2660904D01*
X1896516Y-2667558D01*
X1877466Y-2675991D01*
X1859280Y-2686100D01*
X1842109Y-2697886D01*
X1826056Y-2711196D01*
X1811324Y-2725877D01*
X1798015Y-2741930D01*
X1786280Y-2759049D01*
X1776120Y-2777286D01*
X1767738Y-2796336D01*
X1761083Y-2816098D01*
X1756308Y-2836316D01*
X1753463Y-2856941D01*
X1752498Y-2877769D01*
X1753463Y-2898648D01*
X1756308Y-2919272D01*
X1761083Y-2939491D01*
X1767738Y-2959252D01*
X1776120Y-2978302D01*
X1786280Y-2996488D01*
X1798015Y-3013659D01*
X1811324Y-3029661D01*
X1826056Y-3044393D01*
X1842109Y-3057702D01*
X1859280Y-3069488D01*
X1877466Y-3079597D01*
X1896516Y-3088030D01*
X1916277Y-3094634D01*
X1936546Y-3099460D01*
X1957171Y-3102356D01*
G37*
G36*
X-4880000Y-3103321D02*
G01*
X-4859172Y-3102356D01*
X-4838547Y-3099460D01*
X-4818278Y-3094634D01*
X-4798568Y-3088030D01*
X-4779518Y-3079597D01*
X-4761280Y-3069488D01*
X-4744110Y-3057702D01*
X-4728108Y-3044393D01*
X-4713376Y-3029661D01*
X-4700066Y-3013659D01*
X-4688281Y-2996488D01*
X-4678172Y-2978302D01*
X-4669739Y-2959252D01*
X-4663135Y-2939491D01*
X-4658360Y-2919272D01*
X-4655464Y-2898648D01*
X-4654499Y-2877769D01*
X-4655464Y-2856941D01*
X-4658360Y-2836316D01*
X-4663135Y-2816098D01*
X-4669739Y-2796336D01*
X-4678172Y-2777286D01*
X-4688281Y-2759049D01*
X-4700066Y-2741930D01*
X-4713376Y-2725877D01*
X-4728108Y-2711196D01*
X-4744110Y-2697886D01*
X-4761280Y-2686100D01*
X-4779518Y-2675991D01*
X-4798568Y-2667558D01*
X-4818278Y-2660904D01*
X-4838547Y-2656128D01*
X-4859172Y-2653233D01*
X-4880000Y-2652268D01*
X-4900828Y-2653233D01*
X-4921453Y-2656128D01*
X-4941722Y-2660904D01*
X-4961432Y-2667558D01*
X-4980482Y-2675991D01*
X-4998720Y-2686100D01*
X-5015890Y-2697886D01*
X-5031892Y-2711196D01*
X-5046624Y-2725877D01*
X-5059934Y-2741930D01*
X-5071719Y-2759049D01*
X-5081828Y-2777286D01*
X-5090261Y-2796336D01*
X-5096865Y-2816098D01*
X-5101640Y-2836316D01*
X-5104536Y-2856941D01*
X-5105501Y-2877769D01*
X-5104536Y-2898648D01*
X-5101640Y-2919272D01*
X-5096865Y-2939491D01*
X-5090261Y-2959252D01*
X-5081828Y-2978302D01*
X-5071719Y-2996488D01*
X-5059934Y-3013659D01*
X-5046624Y-3029661D01*
X-5031892Y-3044393D01*
X-5015890Y-3057702D01*
X-4998720Y-3069488D01*
X-4980482Y-3079597D01*
X-4961432Y-3088030D01*
X-4941722Y-3094634D01*
X-4921453Y-3099460D01*
X-4900828Y-3102356D01*
G37*
G36*
X12700Y-3071520D02*
G01*
X29565Y-3070555D01*
X46177Y-3067710D01*
X62382Y-3062986D01*
X77978Y-3056534D01*
X92760Y-3048406D01*
X106527Y-3038602D01*
X119126Y-3027375D01*
X130352Y-3014776D01*
X131419Y-3013303D01*
X134213Y-3010611D01*
X137769Y-3009188D01*
X141630Y-3009188D01*
X145186Y-3010611D01*
X147980Y-3013303D01*
X149047Y-3014776D01*
X160274Y-3027375D01*
X172872Y-3038602D01*
X186639Y-3048406D01*
X201422Y-3056534D01*
X217017Y-3062986D01*
X233222Y-3067710D01*
X249834Y-3070555D01*
X266700Y-3071520D01*
X283565Y-3070555D01*
X300177Y-3067710D01*
X316382Y-3062986D01*
X331978Y-3056534D01*
X346760Y-3048406D01*
X360324Y-3038805D01*
X364388Y-3037078D01*
X368808Y-3037230D01*
X372719Y-3039313D01*
X375412Y-3042818D01*
X376986Y-3046272D01*
X382066Y-3053435D01*
X388264Y-3059633D01*
X395478Y-3064713D01*
X403453Y-3068370D01*
X411937Y-3070707D01*
X421132Y-3071520D01*
X620268Y-3071520D01*
X629462Y-3070707D01*
X637946Y-3068370D01*
X645922Y-3064713D01*
X653135Y-3059633D01*
X659333Y-3053435D01*
X664413Y-3046272D01*
X668121Y-3038297D01*
X670407Y-3029712D01*
X671220Y-3020517D01*
X671220Y-3006648D01*
X671982Y-3002788D01*
X674166Y-2999435D01*
X677468Y-2997301D01*
X681329Y-2996438D01*
X701294Y-2996438D01*
X710031Y-2995574D01*
X712470Y-2995168D01*
X721055Y-2993034D01*
X723341Y-2992272D01*
X733704Y-2987802D01*
X741273Y-2983280D01*
X750062Y-2976168D01*
X1008329Y-2718054D01*
X1011783Y-2715717D01*
X1015898Y-2715107D01*
X1019962Y-2716072D01*
X1023213Y-2718612D01*
X1025245Y-2722321D01*
X1028801Y-2734157D01*
X1033830Y-2744927D01*
X1040434Y-2754884D01*
X1048359Y-2763774D01*
X1057503Y-2771343D01*
X1067663Y-2777591D01*
X1078585Y-2782163D01*
X1090117Y-2785262D01*
X1101902Y-2786481D01*
X1113790Y-2786075D01*
X1125524Y-2783941D01*
X1136751Y-2780080D01*
X1147318Y-2774645D01*
X1157020Y-2767736D01*
X1165555Y-2759506D01*
X1172819Y-2750007D01*
X1178661Y-2739644D01*
X1182928Y-2728620D01*
X1185519Y-2716987D01*
X1186383Y-2705150D01*
X1185621Y-2694990D01*
X1186281Y-2690622D01*
X1188720Y-2686913D01*
X1192479Y-2684678D01*
X1196848Y-2684170D01*
X1203604Y-2684881D01*
X1215491Y-2684424D01*
X1227226Y-2682341D01*
X1238453Y-2678480D01*
X1249019Y-2673045D01*
X1258722Y-2666136D01*
X1267256Y-2657856D01*
X1274521Y-2648407D01*
X1280363Y-2638044D01*
X1284630Y-2626918D01*
X1287221Y-2615387D01*
X1288084Y-2603449D01*
X1287221Y-2591562D01*
X1284630Y-2579979D01*
X1280363Y-2568905D01*
X1274521Y-2558491D01*
X1267256Y-2549093D01*
X1259789Y-2541879D01*
X1257503Y-2538526D01*
X1256690Y-2534564D01*
X1256639Y-2054707D01*
X1255826Y-2045919D01*
X1255420Y-2043480D01*
X1253286Y-2034895D01*
X1249121Y-2024430D01*
X1248054Y-2022297D01*
X1243482Y-2014677D01*
X1242060Y-2012696D01*
X1236421Y-2005888D01*
X853287Y-1622653D01*
X851052Y-1619402D01*
X850290Y-1615541D01*
X850239Y193192D01*
X849426Y201980D01*
X849020Y204419D01*
X846886Y213004D01*
X842721Y223469D01*
X841654Y225602D01*
X837082Y233222D01*
X835660Y235204D01*
X830021Y242011D01*
X792480Y279552D01*
X783691Y286562D01*
X776122Y291185D01*
X773938Y292252D01*
X764946Y295910D01*
X761644Y298145D01*
X759409Y301447D01*
X758647Y305358D01*
X758647Y309626D01*
X759256Y313029D01*
X760933Y316128D01*
X763574Y318312D01*
X771601Y323392D01*
X778560Y329082D01*
X855421Y405739D01*
X862482Y414528D01*
X868121Y424281D01*
X871474Y432358D01*
X872286Y434848D01*
X874826Y445770D01*
X875639Y454456D01*
X875639Y967892D01*
X874826Y976680D01*
X874420Y979119D01*
X872286Y987704D01*
X868121Y998169D01*
X867054Y1000302D01*
X862482Y1007922D01*
X861060Y1009903D01*
X855421Y1016711D01*
X512927Y1359154D01*
X506120Y1364843D01*
X504139Y1366266D01*
X496570Y1370838D01*
X486206Y1375257D01*
X483870Y1376070D01*
X475284Y1378204D01*
X472897Y1378610D01*
X464058Y1379474D01*
X262077Y1379524D01*
X258165Y1380236D01*
X254863Y1382471D01*
X252679Y1385773D01*
X251917Y1389684D01*
X251917Y1453540D01*
X251104Y1462735D01*
X248818Y1471269D01*
X245110Y1479245D01*
X240029Y1486458D01*
X233832Y1492656D01*
X226618Y1497736D01*
X218643Y1501394D01*
X210159Y1503730D01*
X200964Y1504543D01*
X103835Y1504543D01*
X94640Y1503730D01*
X86156Y1501394D01*
X78181Y1497736D01*
X70967Y1492656D01*
X64769Y1486458D01*
X59690Y1479245D01*
X55981Y1471269D01*
X53695Y1462735D01*
X52882Y1453540D01*
X52882Y1393799D01*
X52120Y1389888D01*
X49936Y1386535D01*
X46634Y1384401D01*
X42722Y1383588D01*
X-399796Y1383588D01*
X-403047Y1384096D01*
X-411175Y1386941D01*
X-422909Y1389075D01*
X-434797Y1389481D01*
X-446582Y1388211D01*
X-458114Y1385163D01*
X-459993Y1384452D01*
X-463956Y1383588D01*
X-891489Y1383588D01*
X-895400Y1384401D01*
X-898702Y1386535D01*
X-1013612Y1501546D01*
X-1015847Y1504797D01*
X-1016609Y1508658D01*
X-1016609Y1585772D01*
X-1015898Y1589582D01*
X-1013866Y1592732D01*
X-1010767Y1595018D01*
X-997712Y1601216D01*
X-980795Y1611274D01*
X-964996Y1623009D01*
X-950417Y1636217D01*
X-937209Y1650796D01*
X-925474Y1666646D01*
X-915365Y1683512D01*
X-906983Y1701241D01*
X-900328Y1719783D01*
X-895553Y1738934D01*
X-892657Y1758340D01*
X-891692Y1777949D01*
X-892657Y1797659D01*
X-895553Y1817116D01*
X-900328Y1836216D01*
X-906983Y1854758D01*
X-915365Y1872538D01*
X-925474Y1889404D01*
X-937209Y1905203D01*
X-950417Y1919782D01*
X-964996Y1932990D01*
X-980795Y1944725D01*
X-997712Y1954834D01*
X-1015492Y1963267D01*
X-1033983Y1969820D01*
X-1053084Y1974596D01*
X-1072540Y1977542D01*
X-1092200Y1978507D01*
X-1111859Y1977542D01*
X-1131316Y1974596D01*
X-1150416Y1969820D01*
X-1168908Y1963267D01*
X-1186688Y1954834D01*
X-1203553Y1944725D01*
X-1219403Y1932990D01*
X-1233982Y1919782D01*
X-1247190Y1905203D01*
X-1258874Y1889404D01*
X-1268984Y1872538D01*
X-1277416Y1854758D01*
X-1284020Y1836216D01*
X-1288846Y1817116D01*
X-1291691Y1797659D01*
X-1292656Y1777949D01*
X-1291691Y1758340D01*
X-1288846Y1738934D01*
X-1284020Y1719783D01*
X-1277416Y1701241D01*
X-1268984Y1683512D01*
X-1258874Y1666646D01*
X-1247190Y1650796D01*
X-1233982Y1636217D01*
X-1219403Y1623009D01*
X-1203553Y1611274D01*
X-1186688Y1601216D01*
X-1173429Y1594916D01*
X-1170330Y1592630D01*
X-1168298Y1589481D01*
X-1167587Y1585722D01*
X-1167536Y1470558D01*
X-1166723Y1461770D01*
X-1166317Y1459331D01*
X-1164183Y1450797D01*
X-1163421Y1448511D01*
X-1160018Y1440281D01*
X-1158951Y1438148D01*
X-1154379Y1430528D01*
X-1152956Y1428546D01*
X-1147318Y1421739D01*
X-980440Y1254760D01*
X-971651Y1247292D01*
X-969670Y1245819D01*
X-959916Y1240129D01*
X-951737Y1236827D01*
X-949401Y1236065D01*
X-940816Y1233932D01*
X-938428Y1233525D01*
X-929589Y1232662D01*
X-463956Y1232611D01*
X-459993Y1231747D01*
X-458114Y1231036D01*
X-446582Y1227937D01*
X-434797Y1226718D01*
X-422909Y1227124D01*
X-411175Y1229258D01*
X-403047Y1232103D01*
X-399745Y1232611D01*
X42722Y1232611D01*
X46634Y1231798D01*
X49936Y1229664D01*
X52120Y1226312D01*
X52882Y1222400D01*
X52882Y1165047D01*
X52069Y1160983D01*
X49784Y1157681D01*
X46329Y1155496D01*
X42316Y1154887D01*
X-2682240Y1154988D01*
X-2693466Y1153769D01*
X-2704338Y1150874D01*
X-2712516Y1147470D01*
X-2714701Y1146352D01*
X-2722270Y1141780D01*
X-2731058Y1134770D01*
X-3527298Y338632D01*
X-3530600Y336346D01*
X-3534460Y335635D01*
X-3706672Y335635D01*
X-3710381Y336296D01*
X-3713632Y338328D01*
X-3715867Y341477D01*
X-3722065Y354634D01*
X-3732174Y371500D01*
X-3743909Y387248D01*
X-3757117Y401828D01*
X-3771696Y415035D01*
X-3787495Y426770D01*
X-3804361Y436930D01*
X-3822192Y445312D01*
X-3840683Y451967D01*
X-3859784Y456742D01*
X-3879240Y459587D01*
X-3898900Y460552D01*
X-3918559Y459587D01*
X-3938015Y456742D01*
X-3957065Y451967D01*
X-3975608Y445312D01*
X-3993387Y436930D01*
X-4010253Y426770D01*
X-4026052Y415035D01*
X-4040632Y401828D01*
X-4053890Y387248D01*
X-4065574Y371500D01*
X-4075684Y354634D01*
X-4084116Y336804D01*
X-4090720Y318262D01*
X-4095546Y299161D01*
X-4098391Y279704D01*
X-4099356Y260096D01*
X-4098391Y240487D01*
X-4095546Y221030D01*
X-4090720Y201930D01*
X-4084116Y183388D01*
X-4075684Y165608D01*
X-4065574Y148742D01*
X-4053890Y132943D01*
X-4040632Y118364D01*
X-4026052Y105156D01*
X-4010253Y93421D01*
X-3993387Y83261D01*
X-3975608Y74879D01*
X-3957065Y68224D01*
X-3938015Y63449D01*
X-3918559Y60604D01*
X-3898900Y59639D01*
X-3879240Y60604D01*
X-3859784Y63449D01*
X-3840683Y68224D01*
X-3822192Y74879D01*
X-3804361Y83261D01*
X-3787495Y93421D01*
X-3771696Y105156D01*
X-3757117Y118364D01*
X-3743909Y132943D01*
X-3732174Y148742D01*
X-3722065Y165608D01*
X-3715816Y178816D01*
X-3713581Y181914D01*
X-3710381Y183896D01*
X-3706622Y184658D01*
X-3496360Y184708D01*
X-3487572Y185470D01*
X-3485134Y185877D01*
X-3474262Y188772D01*
X-3463899Y193243D01*
X-3454349Y199237D01*
X-3447542Y204927D01*
X-2651302Y1001064D01*
X-2648000Y1003249D01*
X-2644140Y1004062D01*
X2692Y1004062D01*
X6553Y1003249D01*
X10718Y1000150D01*
X12903Y996899D01*
X13665Y992987D01*
X12903Y989177D01*
X10718Y985875D01*
X7416Y983589D01*
X3505Y982878D01*
X-5435Y982878D01*
X-16205Y981202D01*
X-26619Y978052D01*
X-35610Y973734D01*
X-38506Y972769D01*
X-41503Y972769D01*
X-44399Y973734D01*
X-53390Y978052D01*
X-63804Y981202D01*
X-74574Y982878D01*
X-85445Y982878D01*
X-96215Y981202D01*
X-106629Y978052D01*
X-116433Y973277D01*
X-125425Y967181D01*
X-133451Y959713D01*
X-140208Y951280D01*
X-145643Y941832D01*
X-149656Y931722D01*
X-152044Y921054D01*
X-152908Y909777D01*
X-152908Y787247D01*
X-153670Y783336D01*
X-155905Y780084D01*
X-159156Y777900D01*
X-163068Y777087D01*
X-285648Y777087D01*
X-296875Y776274D01*
X-307492Y773836D01*
X-317652Y769874D01*
X-327050Y764387D01*
X-335584Y757631D01*
X-338683Y754278D01*
X-341985Y751941D01*
X-345897Y751027D01*
X-349859Y751687D01*
X-353263Y753922D01*
X-355498Y757224D01*
X-356311Y761187D01*
X-356311Y793546D01*
X-355650Y797204D01*
X-353771Y801979D01*
X-351180Y813612D01*
X-350316Y825449D01*
X-351180Y837387D01*
X-353771Y848969D01*
X-358038Y860044D01*
X-363880Y870458D01*
X-371144Y879906D01*
X-379679Y888136D01*
X-389382Y895045D01*
X-399948Y900480D01*
X-411175Y904341D01*
X-422909Y906475D01*
X-434797Y906881D01*
X-446582Y905611D01*
X-458114Y902563D01*
X-469036Y897991D01*
X-479196Y891743D01*
X-488340Y884174D01*
X-496265Y875334D01*
X-502869Y865327D01*
X-507898Y854557D01*
X-511301Y843229D01*
X-513029Y831494D01*
X-513029Y819505D01*
X-511301Y807770D01*
X-507746Y795883D01*
X-507288Y792937D01*
X-507288Y-159613D01*
X-508101Y-164846D01*
X-508914Y-173634D01*
X-508965Y-223469D01*
X-509930Y-227838D01*
X-512622Y-231292D01*
X-516483Y-233273D01*
X-521157Y-234594D01*
X-529132Y-238252D01*
X-536346Y-243332D01*
X-542544Y-249529D01*
X-547624Y-256743D01*
X-551332Y-264718D01*
X-553618Y-273253D01*
X-554431Y-282448D01*
X-554431Y-416509D01*
X-553618Y-425704D01*
X-551332Y-434238D01*
X-547624Y-442214D01*
X-542544Y-449376D01*
X-536346Y-455625D01*
X-529132Y-460705D01*
X-521157Y-464362D01*
X-513232Y-466547D01*
X-509371Y-468579D01*
X-506679Y-472084D01*
X-505714Y-476351D01*
X-505714Y-665429D01*
X-506425Y-669137D01*
X-508508Y-672388D01*
X-519277Y-679856D01*
X-525475Y-686104D01*
X-530504Y-693369D01*
X-534263Y-701243D01*
X-535076Y-704342D01*
X-537108Y-708202D01*
X-540562Y-710946D01*
X-544880Y-711911D01*
X-586740Y-711911D01*
X-597966Y-713130D01*
X-608838Y-716026D01*
X-617016Y-719429D01*
X-619201Y-720547D01*
X-626770Y-725119D01*
X-635558Y-732129D01*
X-740918Y-837488D01*
X-746556Y-844296D01*
X-747979Y-846277D01*
X-752551Y-853897D01*
X-753618Y-856030D01*
X-757783Y-866495D01*
X-759917Y-875080D01*
X-760323Y-877519D01*
X-761136Y-886307D01*
X-761136Y-1666341D01*
X-760323Y-1675130D01*
X-759917Y-1677568D01*
X-757783Y-1686102D01*
X-757021Y-1688388D01*
X-753618Y-1696618D01*
X-752551Y-1698752D01*
X-747979Y-1706372D01*
X-746556Y-1708353D01*
X-740918Y-1715160D01*
X-637540Y-1818639D01*
X-628904Y-1826056D01*
X-624992Y-1828546D01*
X-622554Y-1830882D01*
X-620928Y-1833829D01*
X-620369Y-1837080D01*
X-620369Y-1864817D01*
X-619607Y-1874012D01*
X-617321Y-1882597D01*
X-613613Y-1890572D01*
X-608533Y-1897735D01*
X-602335Y-1903933D01*
X-595122Y-1909013D01*
X-587146Y-1912670D01*
X-578662Y-1915007D01*
X-569468Y-1915820D01*
X-555447Y-1915820D01*
X-551586Y-1916531D01*
X-548284Y-1918817D01*
X-546049Y-1922018D01*
X-545287Y-1925929D01*
X-545236Y-1958441D01*
X-544423Y-1967230D01*
X-544017Y-1969668D01*
X-541883Y-1978202D01*
X-541121Y-1980488D01*
X-537718Y-1988718D01*
X-536651Y-1990852D01*
X-532079Y-1998472D01*
X-530656Y-2000453D01*
X-525018Y-2007260D01*
X-447040Y-2085339D01*
X-438251Y-2092807D01*
X-436270Y-2094280D01*
X-428701Y-2098802D01*
X-418338Y-2103272D01*
X-416051Y-2104034D01*
X-407466Y-2106168D01*
X-405028Y-2106574D01*
X-396240Y-2107438D01*
X-93268Y-2107438D01*
X-89408Y-2108250D01*
X-86106Y-2110435D01*
X-65684Y-2130907D01*
X-63449Y-2134209D01*
X-62687Y-2138070D01*
X-62687Y-2252268D01*
X-63195Y-2255469D01*
X-64668Y-2258364D01*
X-68732Y-2261819D01*
X-80010Y-2272182D01*
X-90017Y-2283815D01*
X-98552Y-2296515D01*
X-105359Y-2309723D01*
X-107696Y-2312720D01*
X-110947Y-2314651D01*
X-114706Y-2315210D01*
X-118414Y-2314448D01*
X-121564Y-2312263D01*
X-123698Y-2309215D01*
X-126339Y-2303221D01*
X-134112Y-2290013D01*
X-143408Y-2277872D01*
X-154076Y-2266848D01*
X-165963Y-2257247D01*
X-178917Y-2249068D01*
X-192735Y-2242413D01*
X-195580Y-2241448D01*
X-195580Y-2316480D01*
X-121869Y-2316480D01*
X-118262Y-2317089D01*
X-115163Y-2318969D01*
X-112877Y-2321915D01*
X-111760Y-2325370D01*
X-111963Y-2328976D01*
X-114503Y-2339340D01*
X-116281Y-2354580D01*
X-116281Y-2369820D01*
X-114503Y-2385009D01*
X-111963Y-2395321D01*
X-111760Y-2399030D01*
X-112877Y-2402484D01*
X-115163Y-2405380D01*
X-118262Y-2407259D01*
X-121869Y-2407869D01*
X-195580Y-2407869D01*
X-195580Y-2482900D01*
X-192735Y-2481986D01*
X-178917Y-2475331D01*
X-165963Y-2467152D01*
X-154076Y-2457551D01*
X-143408Y-2446528D01*
X-134112Y-2434336D01*
X-126339Y-2421178D01*
X-123698Y-2415184D01*
X-121564Y-2412085D01*
X-118414Y-2409952D01*
X-114706Y-2409190D01*
X-110947Y-2409748D01*
X-107696Y-2411679D01*
X-105359Y-2414676D01*
X-98552Y-2427884D01*
X-90017Y-2440584D01*
X-80010Y-2452217D01*
X-68732Y-2462580D01*
X-56286Y-2471420D01*
X-42875Y-2478836D01*
X-28702Y-2484577D01*
X-13919Y-2488641D01*
X1219Y-2490876D01*
X16510Y-2491384D01*
X31800Y-2489962D01*
X46736Y-2486863D01*
X61264Y-2481986D01*
X75082Y-2475331D01*
X88036Y-2467152D01*
X99923Y-2457551D01*
X110591Y-2446528D01*
X119887Y-2434336D01*
X127660Y-2421178D01*
X130302Y-2415184D01*
X132435Y-2412085D01*
X135585Y-2409952D01*
X139293Y-2409190D01*
X143052Y-2409748D01*
X146304Y-2411679D01*
X148640Y-2414676D01*
X155448Y-2427884D01*
X163982Y-2440584D01*
X173990Y-2452217D01*
X185267Y-2462580D01*
X197713Y-2471420D01*
X211124Y-2478836D01*
X225298Y-2484577D01*
X240080Y-2488641D01*
X255219Y-2490876D01*
X270510Y-2491384D01*
X285800Y-2489962D01*
X300736Y-2486863D01*
X315264Y-2481986D01*
X329082Y-2475331D01*
X342036Y-2467152D01*
X353923Y-2457551D01*
X364591Y-2446528D01*
X373888Y-2434336D01*
X381660Y-2421178D01*
X384302Y-2415184D01*
X386435Y-2412085D01*
X389585Y-2409952D01*
X393293Y-2409190D01*
X397052Y-2409748D01*
X400304Y-2411679D01*
X402640Y-2414676D01*
X409448Y-2427884D01*
X417982Y-2440584D01*
X427990Y-2452217D01*
X439267Y-2462580D01*
X451713Y-2471420D01*
X465124Y-2478836D01*
X479298Y-2484577D01*
X494080Y-2488641D01*
X509219Y-2490876D01*
X524510Y-2491384D01*
X539800Y-2489962D01*
X554736Y-2486863D01*
X569264Y-2481986D01*
X583082Y-2475331D01*
X596036Y-2467152D01*
X607923Y-2457551D01*
X618591Y-2446528D01*
X627888Y-2434336D01*
X635660Y-2421178D01*
X638302Y-2415184D01*
X640435Y-2412085D01*
X643585Y-2409952D01*
X647293Y-2409190D01*
X651052Y-2409748D01*
X654304Y-2411679D01*
X656640Y-2414676D01*
X663448Y-2427884D01*
X671982Y-2440584D01*
X681990Y-2452217D01*
X693267Y-2462580D01*
X705713Y-2471420D01*
X719124Y-2478836D01*
X733298Y-2484577D01*
X748080Y-2488641D01*
X763219Y-2490876D01*
X778510Y-2491384D01*
X793800Y-2489962D01*
X808736Y-2486863D01*
X823264Y-2481986D01*
X837082Y-2475331D01*
X850036Y-2467152D01*
X861923Y-2457551D01*
X872591Y-2446528D01*
X881887Y-2434336D01*
X889660Y-2421178D01*
X895807Y-2407208D01*
X900277Y-2392578D01*
X903020Y-2377490D01*
X903935Y-2362149D01*
X903020Y-2346909D01*
X900277Y-2331821D01*
X895807Y-2317191D01*
X889660Y-2303221D01*
X881887Y-2290013D01*
X872591Y-2277872D01*
X861923Y-2266848D01*
X853948Y-2260346D01*
X851204Y-2256891D01*
X850188Y-2252522D01*
X850188Y-2086305D01*
X850950Y-2082393D01*
X853186Y-2079091D01*
X856487Y-2076856D01*
X860348Y-2076145D01*
X864260Y-2076856D01*
X867511Y-2079091D01*
X950315Y-2161844D01*
X952550Y-2165146D01*
X953312Y-2169007D01*
X953312Y-2555341D01*
X952550Y-2559202D01*
X950315Y-2562453D01*
X688238Y-2824581D01*
X685088Y-2826715D01*
X681329Y-2827528D01*
X677570Y-2826969D01*
X674268Y-2824988D01*
X671982Y-2821990D01*
X670915Y-2818282D01*
X670407Y-2812237D01*
X668121Y-2803702D01*
X664413Y-2795727D01*
X659333Y-2788513D01*
X653135Y-2782366D01*
X645922Y-2777286D01*
X637946Y-2773629D01*
X629462Y-2771292D01*
X620268Y-2770479D01*
X421132Y-2770479D01*
X411937Y-2771292D01*
X403453Y-2773629D01*
X395478Y-2777286D01*
X388264Y-2782366D01*
X382066Y-2788513D01*
X376986Y-2795727D01*
X375412Y-2799181D01*
X372719Y-2802686D01*
X368808Y-2804718D01*
X364388Y-2804922D01*
X360324Y-2803194D01*
X346456Y-2793339D01*
X344170Y-2791155D01*
X342696Y-2788310D01*
X342188Y-2785059D01*
X342188Y-2737053D01*
X342849Y-2733395D01*
X344728Y-2728518D01*
X347319Y-2716987D01*
X348183Y-2705049D01*
X347319Y-2693212D01*
X344728Y-2681579D01*
X340461Y-2670556D01*
X334619Y-2660142D01*
X327355Y-2650693D01*
X318820Y-2642463D01*
X309118Y-2635504D01*
X298551Y-2630119D01*
X287324Y-2626258D01*
X275590Y-2624124D01*
X263702Y-2623718D01*
X251917Y-2624937D01*
X240385Y-2628036D01*
X229463Y-2632608D01*
X219303Y-2638856D01*
X210159Y-2646426D01*
X202234Y-2655265D01*
X195630Y-2665272D01*
X190601Y-2676042D01*
X187198Y-2687370D01*
X185470Y-2699105D01*
X185470Y-2711043D01*
X187198Y-2722829D01*
X190754Y-2734716D01*
X191211Y-2737662D01*
X191211Y-2785059D01*
X190703Y-2788310D01*
X189230Y-2791155D01*
X186944Y-2793339D01*
X172872Y-2803347D01*
X160274Y-2814624D01*
X149047Y-2827172D01*
X147980Y-2828645D01*
X145186Y-2831338D01*
X141630Y-2832811D01*
X137769Y-2832811D01*
X134213Y-2831338D01*
X131419Y-2828645D01*
X130352Y-2827172D01*
X119126Y-2814624D01*
X106527Y-2803347D01*
X92456Y-2793339D01*
X90170Y-2791155D01*
X88696Y-2788310D01*
X88188Y-2785059D01*
X88188Y-2635453D01*
X88849Y-2631795D01*
X90728Y-2626918D01*
X93319Y-2615387D01*
X94183Y-2603449D01*
X93319Y-2591612D01*
X90728Y-2579979D01*
X86461Y-2568956D01*
X80619Y-2558542D01*
X73355Y-2549093D01*
X64820Y-2540863D01*
X55117Y-2533904D01*
X44551Y-2528519D01*
X33324Y-2524658D01*
X21590Y-2522524D01*
X9702Y-2522118D01*
X-2082Y-2523337D01*
X-13614Y-2526436D01*
X-24536Y-2531008D01*
X-34696Y-2537256D01*
X-43840Y-2544826D01*
X-51765Y-2553665D01*
X-58369Y-2563672D01*
X-63398Y-2574442D01*
X-66802Y-2585770D01*
X-68529Y-2597505D01*
X-68529Y-2609443D01*
X-66802Y-2621229D01*
X-63246Y-2633116D01*
X-62788Y-2636062D01*
X-62788Y-2785059D01*
X-63296Y-2788310D01*
X-64769Y-2791155D01*
X-67056Y-2793339D01*
X-81127Y-2803347D01*
X-93726Y-2814624D01*
X-104952Y-2827172D01*
X-106019Y-2828645D01*
X-108813Y-2831338D01*
X-112369Y-2832811D01*
X-116230Y-2832811D01*
X-119786Y-2831338D01*
X-122580Y-2828645D01*
X-123647Y-2827172D01*
X-134874Y-2814624D01*
X-147472Y-2803347D01*
X-161239Y-2793593D01*
X-176022Y-2785465D01*
X-184962Y-2781706D01*
X-184962Y-2864612D01*
X-140919Y-2864612D01*
X-137261Y-2865374D01*
X-134061Y-2867355D01*
X-131826Y-2870301D01*
X-130810Y-2873857D01*
X-131165Y-2877667D01*
X-134010Y-2887522D01*
X-136855Y-2904134D01*
X-137769Y-2920949D01*
X-136855Y-2937865D01*
X-134010Y-2954477D01*
X-131165Y-2964332D01*
X-130810Y-2968142D01*
X-131826Y-2971647D01*
X-134061Y-2974644D01*
X-137261Y-2976626D01*
X-140919Y-2977388D01*
X-184962Y-2977388D01*
X-184962Y-3060293D01*
X-176022Y-3056534D01*
X-161239Y-3048406D01*
X-147472Y-3038602D01*
X-134874Y-3027375D01*
X-123647Y-3014776D01*
X-122580Y-3013303D01*
X-119786Y-3010611D01*
X-116230Y-3009188D01*
X-112369Y-3009188D01*
X-108813Y-3010611D01*
X-106019Y-3013303D01*
X-104952Y-3014776D01*
X-93726Y-3027375D01*
X-81127Y-3038602D01*
X-67360Y-3048406D01*
X-52578Y-3056534D01*
X-36982Y-3062986D01*
X-20777Y-3067710D01*
X-4165Y-3070555D01*
G37*
G36*
X-551637Y-3060293D02*
G01*
X-551637Y-2977388D01*
X-634593Y-2977388D01*
X-630885Y-2986278D01*
X-622706Y-3001010D01*
X-612952Y-3014776D01*
X-601726Y-3027375D01*
X-589127Y-3038602D01*
X-575360Y-3048406D01*
X-560578Y-3056534D01*
G37*
G36*
X-438962Y-3060293D02*
G01*
X-430022Y-3056534D01*
X-415239Y-3048406D01*
X-401472Y-3038602D01*
X-388874Y-3027375D01*
X-377647Y-3014776D01*
X-376580Y-3013303D01*
X-373786Y-3010611D01*
X-370230Y-3009188D01*
X-366369Y-3009188D01*
X-362813Y-3010611D01*
X-360019Y-3013303D01*
X-358952Y-3014776D01*
X-347726Y-3027375D01*
X-335127Y-3038602D01*
X-321360Y-3048406D01*
X-306578Y-3056534D01*
X-297637Y-3060293D01*
X-297637Y-2977388D01*
X-438962Y-2977388D01*
G37*
G36*
X-634593Y-2864612D02*
G01*
X-551637Y-2864612D01*
X-551637Y-2781706D01*
X-560578Y-2785465D01*
X-575360Y-2793593D01*
X-589127Y-2803347D01*
X-601726Y-2814624D01*
X-612952Y-2827172D01*
X-622706Y-2840888D01*
X-630885Y-2855722D01*
G37*
G36*
X-438962Y-2864612D02*
G01*
X-297637Y-2864612D01*
X-297637Y-2781706D01*
X-306578Y-2785465D01*
X-321360Y-2793593D01*
X-335127Y-2803347D01*
X-347726Y-2814624D01*
X-358952Y-2827172D01*
X-360019Y-2828645D01*
X-362813Y-2831338D01*
X-366369Y-2832811D01*
X-370230Y-2832811D01*
X-373786Y-2831338D01*
X-376580Y-2828645D01*
X-377647Y-2827172D01*
X-388874Y-2814624D01*
X-401472Y-2803347D01*
X-415239Y-2793593D01*
X-430022Y-2785465D01*
X-438962Y-2781706D01*
G37*
G36*
X-2281478Y-2664663D02*
G01*
X-2263444Y-2663240D01*
X-2245664Y-2659938D01*
X-2228342Y-2654960D01*
X-2211628Y-2648153D01*
X-2195677Y-2639618D01*
X-2180691Y-2629560D01*
X-2166772Y-2617978D01*
X-2154174Y-2605074D01*
X-2145080Y-2593543D01*
X-2142845Y-2591511D01*
X-2140153Y-2590139D01*
X-2137105Y-2589682D01*
X-1901393Y-2589682D01*
X-1898243Y-2590190D01*
X-1895398Y-2591663D01*
X-1893112Y-2593949D01*
X-1890217Y-2598064D01*
X-1878279Y-2611628D01*
X-1865020Y-2623921D01*
X-1850542Y-2634742D01*
X-1835048Y-2644038D01*
X-1818690Y-2651709D01*
X-1801622Y-2657652D01*
X-1784045Y-2661869D01*
X-1766163Y-2664155D01*
X-1748078Y-2664663D01*
X-1730044Y-2663240D01*
X-1712315Y-2659938D01*
X-1694942Y-2654960D01*
X-1678228Y-2648153D01*
X-1662277Y-2639618D01*
X-1647291Y-2629560D01*
X-1633372Y-2617978D01*
X-1620774Y-2605074D01*
X-1609598Y-2590901D01*
X-1599895Y-2575610D01*
X-1591818Y-2559456D01*
X-1585417Y-2542590D01*
X-1580845Y-2525115D01*
X-1578051Y-2507234D01*
X-1577136Y-2489149D01*
X-1578051Y-2471115D01*
X-1580845Y-2453284D01*
X-1585417Y-2435809D01*
X-1591818Y-2418943D01*
X-1599895Y-2402738D01*
X-1609598Y-2387498D01*
X-1620774Y-2373325D01*
X-1633372Y-2360422D01*
X-1647291Y-2348788D01*
X-1662277Y-2338730D01*
X-1678228Y-2330246D01*
X-1694942Y-2323439D01*
X-1712315Y-2318410D01*
X-1730044Y-2315159D01*
X-1748078Y-2313736D01*
X-1766163Y-2314194D01*
X-1784045Y-2316530D01*
X-1801622Y-2320747D01*
X-1818690Y-2326690D01*
X-1835048Y-2334260D01*
X-1850542Y-2343556D01*
X-1865020Y-2354478D01*
X-1878279Y-2366721D01*
X-1890217Y-2380335D01*
X-1893163Y-2384399D01*
X-1895398Y-2386736D01*
X-1898243Y-2388209D01*
X-1901443Y-2388717D01*
X-2137105Y-2388717D01*
X-2140102Y-2388260D01*
X-2142845Y-2386888D01*
X-2145080Y-2384856D01*
X-2154174Y-2373325D01*
X-2166772Y-2360422D01*
X-2180996Y-2348636D01*
X-2183434Y-2346299D01*
X-2184958Y-2343404D01*
X-2185517Y-2340152D01*
X-2185517Y-1779219D01*
X-2184908Y-1775764D01*
X-2183180Y-1772767D01*
X-2180590Y-1770430D01*
X-2174595Y-1766925D01*
X-2158796Y-1755190D01*
X-2144217Y-1741982D01*
X-2131009Y-1727403D01*
X-2119274Y-1711553D01*
X-2109165Y-1694688D01*
X-2100783Y-1676958D01*
X-2094128Y-1658416D01*
X-2089353Y-1639265D01*
X-2086457Y-1619859D01*
X-2085492Y-1600250D01*
X-2086457Y-1580540D01*
X-2089353Y-1561084D01*
X-2094128Y-1541983D01*
X-2100783Y-1523441D01*
X-2109165Y-1505661D01*
X-2119274Y-1488795D01*
X-2131009Y-1472996D01*
X-2144217Y-1458417D01*
X-2158796Y-1445209D01*
X-2174595Y-1433474D01*
X-2191512Y-1423365D01*
X-2209292Y-1414932D01*
X-2227783Y-1408379D01*
X-2246884Y-1403604D01*
X-2266340Y-1400657D01*
X-2286000Y-1399692D01*
X-2305659Y-1400657D01*
X-2325116Y-1403604D01*
X-2344216Y-1408379D01*
X-2362708Y-1414932D01*
X-2380488Y-1423365D01*
X-2397353Y-1433474D01*
X-2413203Y-1445209D01*
X-2427782Y-1458417D01*
X-2440990Y-1472996D01*
X-2452674Y-1488795D01*
X-2462784Y-1505661D01*
X-2471216Y-1523441D01*
X-2477820Y-1541983D01*
X-2482646Y-1561084D01*
X-2485491Y-1580540D01*
X-2486456Y-1600250D01*
X-2485491Y-1619859D01*
X-2482646Y-1639265D01*
X-2477820Y-1658416D01*
X-2471216Y-1676958D01*
X-2462784Y-1694688D01*
X-2452674Y-1711553D01*
X-2440990Y-1727403D01*
X-2427782Y-1741982D01*
X-2413203Y-1755190D01*
X-2397353Y-1766925D01*
X-2391410Y-1770430D01*
X-2388819Y-1772767D01*
X-2387092Y-1775764D01*
X-2386482Y-1779219D01*
X-2386482Y-2340457D01*
X-2386990Y-2343505D01*
X-2388362Y-2346299D01*
X-2390546Y-2348585D01*
X-2398420Y-2354478D01*
X-2411679Y-2366721D01*
X-2423617Y-2380335D01*
X-2434082Y-2395016D01*
X-2442972Y-2410764D01*
X-2450185Y-2427325D01*
X-2455672Y-2444496D01*
X-2459380Y-2462174D01*
X-2461260Y-2480157D01*
X-2461260Y-2498242D01*
X-2459380Y-2516225D01*
X-2455672Y-2533904D01*
X-2450185Y-2551074D01*
X-2442972Y-2567635D01*
X-2434082Y-2583332D01*
X-2423617Y-2598064D01*
X-2411679Y-2611628D01*
X-2398420Y-2623921D01*
X-2383942Y-2634742D01*
X-2368448Y-2644038D01*
X-2352090Y-2651709D01*
X-2335022Y-2657652D01*
X-2317445Y-2661869D01*
X-2299512Y-2664155D01*
G37*
G36*
X-2789478Y-2664663D02*
G01*
X-2771444Y-2663240D01*
X-2753664Y-2659938D01*
X-2736342Y-2654960D01*
X-2719628Y-2648153D01*
X-2703677Y-2639618D01*
X-2688691Y-2629560D01*
X-2674772Y-2617978D01*
X-2662174Y-2605074D01*
X-2650998Y-2590901D01*
X-2641295Y-2575610D01*
X-2633218Y-2559456D01*
X-2626817Y-2542590D01*
X-2622245Y-2525115D01*
X-2619451Y-2507234D01*
X-2618536Y-2489149D01*
X-2619451Y-2471115D01*
X-2622245Y-2453284D01*
X-2626817Y-2435809D01*
X-2633218Y-2418943D01*
X-2641295Y-2402738D01*
X-2650998Y-2387498D01*
X-2662174Y-2373325D01*
X-2674772Y-2360422D01*
X-2688894Y-2348687D01*
X-2691333Y-2346401D01*
X-2692857Y-2343454D01*
X-2693416Y-2340203D01*
X-2693416Y-2184704D01*
X-2694279Y-2171293D01*
X-2696870Y-2158339D01*
X-2701086Y-2145944D01*
X-2706878Y-2134158D01*
X-2714193Y-2123186D01*
X-2723083Y-2113076D01*
X-3167126Y-1669034D01*
X-3177235Y-1660143D01*
X-3188157Y-1652828D01*
X-3199942Y-1647037D01*
X-3212388Y-1642872D01*
X-3225292Y-1640230D01*
X-3238754Y-1639417D01*
X-3719931Y-1639417D01*
X-3723335Y-1638757D01*
X-3726383Y-1637080D01*
X-3728669Y-1634489D01*
X-3732174Y-1628495D01*
X-3743909Y-1612696D01*
X-3757117Y-1598117D01*
X-3771696Y-1584909D01*
X-3787495Y-1573174D01*
X-3804361Y-1563065D01*
X-3822192Y-1554632D01*
X-3840683Y-1548079D01*
X-3859784Y-1543304D01*
X-3879240Y-1540357D01*
X-3898900Y-1539392D01*
X-3918559Y-1540357D01*
X-3938015Y-1543304D01*
X-3957065Y-1548079D01*
X-3975608Y-1554632D01*
X-3993387Y-1563065D01*
X-4010253Y-1573174D01*
X-4026052Y-1584909D01*
X-4040632Y-1598117D01*
X-4053890Y-1612696D01*
X-4065574Y-1628495D01*
X-4075684Y-1645361D01*
X-4084116Y-1663141D01*
X-4090720Y-1681683D01*
X-4095546Y-1700784D01*
X-4098391Y-1720240D01*
X-4099356Y-1739849D01*
X-4098391Y-1759559D01*
X-4095546Y-1778965D01*
X-4090720Y-1798116D01*
X-4084116Y-1816658D01*
X-4075684Y-1834388D01*
X-4065574Y-1851253D01*
X-4053890Y-1867103D01*
X-4040632Y-1881682D01*
X-4026052Y-1894890D01*
X-4010253Y-1906625D01*
X-3993387Y-1916684D01*
X-3975608Y-1925167D01*
X-3957065Y-1931720D01*
X-3938015Y-1936496D01*
X-3918559Y-1939442D01*
X-3898900Y-1940407D01*
X-3879240Y-1939442D01*
X-3859784Y-1936496D01*
X-3840683Y-1931720D01*
X-3822192Y-1925167D01*
X-3804361Y-1916684D01*
X-3787495Y-1906625D01*
X-3771696Y-1894890D01*
X-3757117Y-1881682D01*
X-3743909Y-1867103D01*
X-3732174Y-1851253D01*
X-3728618Y-1845259D01*
X-3726332Y-1842719D01*
X-3723335Y-1840941D01*
X-3719880Y-1840331D01*
X-3284220Y-1840331D01*
X-3280359Y-1841144D01*
X-3277057Y-1843328D01*
X-2897378Y-2223058D01*
X-2895142Y-2226310D01*
X-2894380Y-2230170D01*
X-2894380Y-2340356D01*
X-2894888Y-2343404D01*
X-2896260Y-2346248D01*
X-2898444Y-2348433D01*
X-2906420Y-2354478D01*
X-2919679Y-2366721D01*
X-2931617Y-2380335D01*
X-2942082Y-2395016D01*
X-2950972Y-2410764D01*
X-2958185Y-2427325D01*
X-2963672Y-2444496D01*
X-2967380Y-2462174D01*
X-2969260Y-2480157D01*
X-2969260Y-2498242D01*
X-2967380Y-2516225D01*
X-2963672Y-2533904D01*
X-2958185Y-2551074D01*
X-2950972Y-2567635D01*
X-2942082Y-2583332D01*
X-2931617Y-2598064D01*
X-2919679Y-2611628D01*
X-2906420Y-2623921D01*
X-2891942Y-2634742D01*
X-2876448Y-2644038D01*
X-2860090Y-2651709D01*
X-2843022Y-2657652D01*
X-2825445Y-2661869D01*
X-2807512Y-2664155D01*
G37*
G36*
X-1240078Y-2664663D02*
G01*
X-1222044Y-2663240D01*
X-1204315Y-2659938D01*
X-1186942Y-2654960D01*
X-1170228Y-2648153D01*
X-1154277Y-2639618D01*
X-1139291Y-2629560D01*
X-1125372Y-2617978D01*
X-1112774Y-2605074D01*
X-1101598Y-2590901D01*
X-1091895Y-2575610D01*
X-1083818Y-2559456D01*
X-1077417Y-2542590D01*
X-1072845Y-2525115D01*
X-1070051Y-2507234D01*
X-1069136Y-2489149D01*
X-1070051Y-2471115D01*
X-1072845Y-2453284D01*
X-1077417Y-2435809D01*
X-1083818Y-2418943D01*
X-1091895Y-2402738D01*
X-1101598Y-2387498D01*
X-1112774Y-2373325D01*
X-1125372Y-2360422D01*
X-1139494Y-2348687D01*
X-1141933Y-2346401D01*
X-1143457Y-2343454D01*
X-1144016Y-2340203D01*
X-1144016Y-1727504D01*
X-1144879Y-1714093D01*
X-1147470Y-1701139D01*
X-1151686Y-1688744D01*
X-1157478Y-1676958D01*
X-1164793Y-1665986D01*
X-1173683Y-1655876D01*
X-1300226Y-1529334D01*
X-1310335Y-1520444D01*
X-1321257Y-1513128D01*
X-1333042Y-1507337D01*
X-1345488Y-1503172D01*
X-1358392Y-1500530D01*
X-1371854Y-1499717D01*
X-1484731Y-1499717D01*
X-1488135Y-1499057D01*
X-1491183Y-1497380D01*
X-1493469Y-1494790D01*
X-1496974Y-1488795D01*
X-1508709Y-1472996D01*
X-1521917Y-1458417D01*
X-1536496Y-1445209D01*
X-1552295Y-1433474D01*
X-1558188Y-1429969D01*
X-1560779Y-1427683D01*
X-1562506Y-1424686D01*
X-1563116Y-1421231D01*
X-1563116Y-1295704D01*
X-1563979Y-1282293D01*
X-1566570Y-1269339D01*
X-1570786Y-1256944D01*
X-1576578Y-1245158D01*
X-1583893Y-1234186D01*
X-1592783Y-1224076D01*
X-2047748Y-769112D01*
X-2057857Y-760272D01*
X-2068779Y-752957D01*
X-2080564Y-747115D01*
X-2093010Y-742899D01*
X-2105914Y-740308D01*
X-2119376Y-739444D01*
X-3719931Y-739444D01*
X-3723335Y-738835D01*
X-3726383Y-737158D01*
X-3728669Y-734517D01*
X-3732174Y-728573D01*
X-3743909Y-712825D01*
X-3757117Y-698246D01*
X-3771696Y-685038D01*
X-3787495Y-673303D01*
X-3804361Y-663143D01*
X-3822192Y-654761D01*
X-3840683Y-648106D01*
X-3859784Y-643382D01*
X-3879240Y-640486D01*
X-3898900Y-639521D01*
X-3918559Y-640486D01*
X-3938015Y-643382D01*
X-3957065Y-648106D01*
X-3975608Y-654761D01*
X-3993387Y-663143D01*
X-4010253Y-673303D01*
X-4026052Y-685038D01*
X-4040632Y-698246D01*
X-4053890Y-712825D01*
X-4065574Y-728573D01*
X-4075684Y-745490D01*
X-4084116Y-763219D01*
X-4090720Y-781761D01*
X-4095546Y-800862D01*
X-4098391Y-820369D01*
X-4099356Y-839927D01*
X-4098391Y-859586D01*
X-4095546Y-879043D01*
X-4090720Y-898144D01*
X-4084116Y-916686D01*
X-4075684Y-934516D01*
X-4065574Y-951331D01*
X-4053890Y-967130D01*
X-4040632Y-981710D01*
X-4026052Y-994918D01*
X-4010253Y-1006652D01*
X-3993387Y-1016762D01*
X-3975608Y-1025194D01*
X-3957065Y-1031849D01*
X-3938015Y-1036624D01*
X-3918559Y-1039520D01*
X-3898900Y-1040485D01*
X-3879240Y-1039520D01*
X-3859784Y-1036624D01*
X-3840683Y-1031849D01*
X-3822192Y-1025194D01*
X-3804361Y-1016762D01*
X-3787495Y-1006652D01*
X-3771696Y-994918D01*
X-3757117Y-981710D01*
X-3743909Y-967130D01*
X-3732174Y-951331D01*
X-3728618Y-945387D01*
X-3726332Y-942797D01*
X-3723335Y-941019D01*
X-3719880Y-940460D01*
X-2164842Y-940460D01*
X-2160981Y-941171D01*
X-2157679Y-943457D01*
X-1767078Y-1334058D01*
X-1764842Y-1337310D01*
X-1764080Y-1341170D01*
X-1764080Y-1421180D01*
X-1764690Y-1424584D01*
X-1766417Y-1427581D01*
X-1769008Y-1429918D01*
X-1775053Y-1433474D01*
X-1790903Y-1445209D01*
X-1805482Y-1458417D01*
X-1818690Y-1472996D01*
X-1830374Y-1488795D01*
X-1840484Y-1505661D01*
X-1848916Y-1523441D01*
X-1855520Y-1541983D01*
X-1860346Y-1561084D01*
X-1863191Y-1580540D01*
X-1864156Y-1600250D01*
X-1863191Y-1619859D01*
X-1860346Y-1639265D01*
X-1855520Y-1658416D01*
X-1848916Y-1676958D01*
X-1840484Y-1694688D01*
X-1830374Y-1711553D01*
X-1818690Y-1727403D01*
X-1805482Y-1741982D01*
X-1790903Y-1755190D01*
X-1775053Y-1766925D01*
X-1758188Y-1776984D01*
X-1740407Y-1785467D01*
X-1721916Y-1792020D01*
X-1702816Y-1796796D01*
X-1683359Y-1799742D01*
X-1663700Y-1800707D01*
X-1644040Y-1799742D01*
X-1624584Y-1796796D01*
X-1605483Y-1792020D01*
X-1586992Y-1785467D01*
X-1569212Y-1776984D01*
X-1552295Y-1766925D01*
X-1536496Y-1755190D01*
X-1521917Y-1741982D01*
X-1508709Y-1727403D01*
X-1496974Y-1711553D01*
X-1493418Y-1705559D01*
X-1491132Y-1703019D01*
X-1488135Y-1701241D01*
X-1484680Y-1700631D01*
X-1417320Y-1700631D01*
X-1413459Y-1701444D01*
X-1410157Y-1703628D01*
X-1347978Y-1765858D01*
X-1345742Y-1769110D01*
X-1344980Y-1772970D01*
X-1344980Y-2340356D01*
X-1345488Y-2343404D01*
X-1346860Y-2346248D01*
X-1349044Y-2348433D01*
X-1357020Y-2354478D01*
X-1370279Y-2366721D01*
X-1382217Y-2380335D01*
X-1392682Y-2395016D01*
X-1401572Y-2410764D01*
X-1408785Y-2427325D01*
X-1414272Y-2444496D01*
X-1417980Y-2462174D01*
X-1419860Y-2480157D01*
X-1419860Y-2498242D01*
X-1417980Y-2516225D01*
X-1414272Y-2533904D01*
X-1408785Y-2551074D01*
X-1401572Y-2567635D01*
X-1392682Y-2583332D01*
X-1382217Y-2598064D01*
X-1370279Y-2611628D01*
X-1357020Y-2623921D01*
X-1342542Y-2634742D01*
X-1327048Y-2644038D01*
X-1310690Y-2651709D01*
X-1293622Y-2657652D01*
X-1276045Y-2661869D01*
X-1258163Y-2664155D01*
G37*
G36*
X-573582Y-2491384D02*
G01*
X-541020Y-2491384D01*
X-541020Y-2407869D01*
X-624535Y-2407869D01*
X-624535Y-2440533D01*
X-623722Y-2449728D01*
X-621436Y-2458161D01*
X-617728Y-2466136D01*
X-612698Y-2473350D01*
X-606450Y-2479598D01*
X-599287Y-2484628D01*
X-591312Y-2488387D01*
X-582777Y-2490622D01*
G37*
G36*
X-449580Y-2491384D02*
G01*
X-417017Y-2491384D01*
X-407822Y-2490622D01*
X-399288Y-2488387D01*
X-391312Y-2484628D01*
X-384149Y-2479598D01*
X-377901Y-2473350D01*
X-372872Y-2466136D01*
X-369163Y-2458161D01*
X-366877Y-2449728D01*
X-366064Y-2440178D01*
X-364845Y-2436215D01*
X-362153Y-2433116D01*
X-358444Y-2431288D01*
X-354330Y-2431034D01*
X-350469Y-2432507D01*
X-347472Y-2435402D01*
X-344017Y-2440584D01*
X-334010Y-2452217D01*
X-322732Y-2462580D01*
X-310286Y-2471420D01*
X-296875Y-2478836D01*
X-287020Y-2482799D01*
X-287020Y-2407869D01*
X-449580Y-2407869D01*
G37*
G36*
X-624535Y-2316480D02*
G01*
X-541020Y-2316480D01*
X-541020Y-2232964D01*
X-573582Y-2232964D01*
X-582777Y-2233726D01*
X-591312Y-2236012D01*
X-599287Y-2239772D01*
X-606450Y-2244801D01*
X-612698Y-2251049D01*
X-617728Y-2258263D01*
X-621436Y-2266188D01*
X-623722Y-2274671D01*
X-624535Y-2283866D01*
G37*
G36*
X-449580Y-2316480D02*
G01*
X-287020Y-2316480D01*
X-287020Y-2241499D01*
X-296875Y-2245563D01*
X-310286Y-2252980D01*
X-322732Y-2261819D01*
X-334010Y-2272182D01*
X-344017Y-2283815D01*
X-347472Y-2288997D01*
X-350469Y-2291842D01*
X-354330Y-2293315D01*
X-358444Y-2293112D01*
X-362153Y-2291283D01*
X-364845Y-2288133D01*
X-366064Y-2284171D01*
X-366877Y-2274671D01*
X-369163Y-2266188D01*
X-372872Y-2258263D01*
X-377901Y-2251049D01*
X-384149Y-2244801D01*
X-391312Y-2239772D01*
X-399288Y-2236012D01*
X-407822Y-2233726D01*
X-417017Y-2232964D01*
X-449580Y-2232964D01*
G37*
G36*
X-3817518Y577189D02*
G01*
X-3804361Y583438D01*
X-3787495Y593547D01*
X-3771696Y605282D01*
X-3757117Y618490D01*
X-3743909Y633069D01*
X-3732174Y648868D01*
X-3722065Y665683D01*
X-3715867Y678840D01*
X-3817518Y678840D01*
G37*
G36*
X-3980230Y577189D02*
G01*
X-3980230Y678840D01*
X-4081932Y678840D01*
X-4075684Y665683D01*
X-4065574Y648868D01*
X-4053890Y633069D01*
X-4040632Y618490D01*
X-4026052Y605282D01*
X-4010253Y593547D01*
X-3993387Y583438D01*
G37*
G36*
X-3817518Y841552D02*
G01*
X-3715867Y841552D01*
X-3722065Y854710D01*
X-3732174Y871626D01*
X-3743909Y887374D01*
X-3757117Y901953D01*
X-3771696Y915162D01*
X-3787495Y926896D01*
X-3804361Y937056D01*
X-3817518Y943305D01*
G37*
G36*
X-4081932Y841552D02*
G01*
X-3980230Y841552D01*
X-3980230Y943305D01*
X-3993387Y937056D01*
X-4010253Y926896D01*
X-4026052Y915162D01*
X-4040632Y901953D01*
X-4053890Y887374D01*
X-4065574Y871626D01*
X-4075684Y854710D01*
G37*
G36*
X183235Y1543456D02*
G01*
X200964Y1543456D01*
X210159Y1544269D01*
X218643Y1546606D01*
X226618Y1550263D01*
X233832Y1555343D01*
X240029Y1561541D01*
X245110Y1568754D01*
X248818Y1576781D01*
X251104Y1585264D01*
X251917Y1594459D01*
X251917Y1662633D01*
X183235Y1662633D01*
G37*
G36*
X103835Y1543456D02*
G01*
X121564Y1543456D01*
X121564Y1662633D01*
X52882Y1662633D01*
X52882Y1594459D01*
X53695Y1585264D01*
X55981Y1576781D01*
X59690Y1568754D01*
X64769Y1561541D01*
X70967Y1555343D01*
X78181Y1550263D01*
X86156Y1546606D01*
X94640Y1544269D01*
G37*
G36*
X-2938830Y1582267D02*
G01*
X-2938830Y1683969D01*
X-3040532Y1683969D01*
X-3034284Y1670812D01*
X-3024174Y1653946D01*
X-3012490Y1638096D01*
X-2999282Y1623517D01*
X-2984703Y1610309D01*
X-2968853Y1598574D01*
X-2951988Y1588516D01*
G37*
G36*
X-2776169Y1582267D02*
G01*
X-2763012Y1588516D01*
X-2746095Y1598574D01*
X-2730296Y1610309D01*
X-2715717Y1623517D01*
X-2702509Y1638096D01*
X-2690774Y1653946D01*
X-2680665Y1670812D01*
X-2674467Y1683969D01*
X-2776169Y1683969D01*
G37*
G36*
X1977999Y1646478D02*
G01*
X1998776Y1647443D01*
X2019401Y1650339D01*
X2039670Y1655165D01*
X2059432Y1661769D01*
X2078482Y1670202D01*
X2096668Y1680311D01*
X2113838Y1692097D01*
X2129891Y1705406D01*
X2144623Y1720138D01*
X2157933Y1736140D01*
X2169668Y1753311D01*
X2179828Y1771497D01*
X2188210Y1790547D01*
X2194864Y1810308D01*
X2199640Y1830527D01*
X2202484Y1851152D01*
X2203450Y1872030D01*
X2202484Y1892858D01*
X2199640Y1913483D01*
X2194864Y1933702D01*
X2188210Y1953463D01*
X2179828Y1972513D01*
X2169668Y1990750D01*
X2157933Y2007870D01*
X2144623Y2023922D01*
X2129891Y2038604D01*
X2113838Y2051913D01*
X2096668Y2063699D01*
X2078482Y2073808D01*
X2059432Y2082241D01*
X2039670Y2088896D01*
X2019401Y2093671D01*
X1998776Y2096566D01*
X1977999Y2097532D01*
X1957171Y2096566D01*
X1936546Y2093671D01*
X1916277Y2088896D01*
X1896516Y2082241D01*
X1877466Y2073808D01*
X1859280Y2063699D01*
X1842109Y2051913D01*
X1826056Y2038604D01*
X1811324Y2023922D01*
X1798015Y2007870D01*
X1786280Y1990750D01*
X1776120Y1972513D01*
X1767738Y1953463D01*
X1761083Y1933702D01*
X1756308Y1913483D01*
X1753463Y1892858D01*
X1752498Y1872030D01*
X1753463Y1851152D01*
X1756308Y1830527D01*
X1761083Y1810308D01*
X1767738Y1790547D01*
X1776120Y1771497D01*
X1786280Y1753311D01*
X1798015Y1736140D01*
X1811324Y1720138D01*
X1826056Y1705406D01*
X1842109Y1692097D01*
X1859280Y1680311D01*
X1877466Y1670202D01*
X1896516Y1661769D01*
X1916277Y1655165D01*
X1936546Y1650339D01*
X1957171Y1647443D01*
G37*
G36*
X-4880000Y1646478D02*
G01*
X-4859172Y1647443D01*
X-4838547Y1650339D01*
X-4818278Y1655165D01*
X-4798568Y1661769D01*
X-4779518Y1670202D01*
X-4761280Y1680311D01*
X-4744110Y1692097D01*
X-4728108Y1705406D01*
X-4713376Y1720138D01*
X-4700066Y1736140D01*
X-4688281Y1753311D01*
X-4678172Y1771497D01*
X-4669739Y1790547D01*
X-4663135Y1810308D01*
X-4658360Y1830527D01*
X-4655464Y1851152D01*
X-4654499Y1872030D01*
X-4655464Y1892858D01*
X-4658360Y1913483D01*
X-4663135Y1933702D01*
X-4669739Y1953463D01*
X-4678172Y1972513D01*
X-4688281Y1990750D01*
X-4700066Y2007870D01*
X-4713376Y2023922D01*
X-4728108Y2038604D01*
X-4744110Y2051913D01*
X-4761280Y2063699D01*
X-4779518Y2073808D01*
X-4798568Y2082241D01*
X-4818278Y2088896D01*
X-4838547Y2093671D01*
X-4859172Y2096566D01*
X-4880000Y2097532D01*
X-4900828Y2096566D01*
X-4921453Y2093671D01*
X-4941722Y2088896D01*
X-4961432Y2082241D01*
X-4980482Y2073808D01*
X-4998720Y2063699D01*
X-5015890Y2051913D01*
X-5031892Y2038604D01*
X-5046624Y2023922D01*
X-5059934Y2007870D01*
X-5071719Y1990750D01*
X-5081828Y1972513D01*
X-5090261Y1953463D01*
X-5096865Y1933702D01*
X-5101640Y1913483D01*
X-5104536Y1892858D01*
X-5105501Y1872030D01*
X-5104536Y1851152D01*
X-5101640Y1830527D01*
X-5096865Y1810308D01*
X-5090261Y1790547D01*
X-5081828Y1771497D01*
X-5071719Y1753311D01*
X-5059934Y1736140D01*
X-5046624Y1720138D01*
X-5031892Y1705406D01*
X-5015890Y1692097D01*
X-4998720Y1680311D01*
X-4980482Y1670202D01*
X-4961432Y1661769D01*
X-4941722Y1655165D01*
X-4921453Y1650339D01*
X-4900828Y1647443D01*
G37*
G36*
X183235Y1825294D02*
G01*
X251917Y1825294D01*
X251917Y1893519D01*
X251104Y1902764D01*
X248818Y1911197D01*
X245110Y1919224D01*
X240029Y1926386D01*
X233832Y1932635D01*
X226618Y1937664D01*
X218643Y1941423D01*
X210159Y1943709D01*
X200964Y1944471D01*
X183235Y1944471D01*
G37*
G36*
X52882Y1825294D02*
G01*
X121564Y1825294D01*
X121564Y1944471D01*
X103835Y1944471D01*
X94640Y1943709D01*
X86156Y1941423D01*
X78181Y1937664D01*
X70967Y1932635D01*
X64769Y1926386D01*
X59690Y1919224D01*
X55981Y1911197D01*
X53695Y1902764D01*
X52882Y1893519D01*
G37*
G36*
X-3040532Y1846630D02*
G01*
X-2938830Y1846630D01*
X-2938830Y1948332D01*
X-2951988Y1942134D01*
X-2968853Y1932025D01*
X-2984703Y1920290D01*
X-2999282Y1907082D01*
X-3012490Y1892503D01*
X-3024174Y1876704D01*
X-3034284Y1859838D01*
G37*
G36*
X-2776169Y1846630D02*
G01*
X-2674467Y1846630D01*
X-2680665Y1859838D01*
X-2690774Y1876704D01*
X-2702509Y1892503D01*
X-2715717Y1907082D01*
X-2730296Y1920290D01*
X-2746095Y1932025D01*
X-2763012Y1942134D01*
X-2776169Y1948332D01*
G37*

%LPD*%
G36*
X-41503Y124409D02*
G01*
X-44399Y125272D01*
X-53390Y129641D01*
X-63804Y132791D01*
X-74574Y134467D01*
X-79603Y134467D01*
X-83464Y135229D01*
X-86766Y137464D01*
X-89001Y140766D01*
X-89763Y144627D01*
X-89763Y149656D01*
X-91389Y160426D01*
X-94589Y170789D01*
X-98907Y179832D01*
X-99771Y182727D01*
X-99771Y185724D01*
X-98907Y188620D01*
X-94589Y197561D01*
X-91389Y207975D01*
X-89763Y218744D01*
X-89763Y229666D01*
X-91389Y240436D01*
X-94589Y250850D01*
X-98907Y259791D01*
X-99771Y262636D01*
X-99771Y265734D01*
X-98907Y268579D01*
X-94589Y277622D01*
X-91389Y287985D01*
X-89763Y298754D01*
X-89763Y309626D01*
X-91389Y320446D01*
X-94589Y330860D01*
X-98907Y339750D01*
X-99771Y342646D01*
X-99771Y345694D01*
X-98907Y348589D01*
X-94589Y357581D01*
X-91389Y367995D01*
X-89763Y378764D01*
X-89763Y389636D01*
X-91389Y400405D01*
X-94589Y410870D01*
X-98907Y419811D01*
X-99771Y422706D01*
X-99771Y425704D01*
X-98907Y428650D01*
X-94589Y437540D01*
X-91389Y448005D01*
X-89763Y458774D01*
X-89763Y469646D01*
X-91389Y480415D01*
X-94589Y490778D01*
X-98907Y499821D01*
X-99771Y502716D01*
X-99771Y505764D01*
X-98907Y508609D01*
X-94589Y517550D01*
X-91389Y527964D01*
X-89763Y538784D01*
X-89763Y549656D01*
X-91389Y560425D01*
X-94589Y570788D01*
X-98907Y579831D01*
X-99771Y582676D01*
X-99771Y585724D01*
X-98907Y588619D01*
X-94589Y597611D01*
X-91389Y607974D01*
X-89763Y618744D01*
X-89763Y629666D01*
X-91389Y640435D01*
X-94589Y650849D01*
X-98907Y659790D01*
X-99771Y662635D01*
X-99771Y665683D01*
X-98907Y668578D01*
X-94589Y677621D01*
X-91389Y687984D01*
X-89763Y698754D01*
X-89763Y703732D01*
X-89001Y707644D01*
X-86766Y710946D01*
X-83464Y713181D01*
X-79603Y713892D01*
X-74574Y713892D01*
X-63804Y715518D01*
X-53390Y718769D01*
X-44399Y723138D01*
X-41503Y724001D01*
X-38506Y724001D01*
X-35610Y723138D01*
X-26619Y718769D01*
X-16205Y715518D01*
X-5435Y713892D01*
X5435Y713892D01*
X16205Y715518D01*
X26619Y718769D01*
X35560Y723138D01*
X38455Y724001D01*
X41503Y724001D01*
X44399Y723138D01*
X53390Y718769D01*
X63754Y715518D01*
X74523Y713892D01*
X85445Y713892D01*
X96215Y715518D01*
X106629Y718769D01*
X115570Y723138D01*
X118465Y724001D01*
X121513Y724001D01*
X124409Y723138D01*
X133350Y718769D01*
X143764Y715518D01*
X154533Y713892D01*
X165455Y713892D01*
X176225Y715518D01*
X186588Y718769D01*
X195580Y723138D01*
X198475Y724001D01*
X201523Y724001D01*
X204419Y723138D01*
X213360Y718769D01*
X223774Y715518D01*
X234543Y713892D01*
X245414Y713892D01*
X256184Y715518D01*
X266598Y718769D01*
X275590Y723138D01*
X278485Y724001D01*
X281482Y724001D01*
X284378Y723138D01*
X293370Y718769D01*
X303784Y715518D01*
X314553Y713892D01*
X325424Y713892D01*
X336194Y715518D01*
X346608Y718769D01*
X355600Y723138D01*
X358495Y724001D01*
X361492Y724001D01*
X364388Y723138D01*
X373380Y718769D01*
X383794Y715518D01*
X394563Y713892D01*
X405434Y713892D01*
X416204Y715518D01*
X426618Y718769D01*
X435559Y723138D01*
X438454Y724001D01*
X441502Y724001D01*
X444398Y723138D01*
X453390Y718769D01*
X463753Y715518D01*
X474522Y713892D01*
X479551Y713892D01*
X483463Y713181D01*
X486765Y710946D01*
X488950Y707644D01*
X489712Y703732D01*
X489712Y698754D01*
X491337Y687984D01*
X494538Y677621D01*
X498856Y668578D01*
X499770Y665683D01*
X499770Y662635D01*
X498856Y659790D01*
X494538Y650849D01*
X491337Y640435D01*
X489712Y629666D01*
X489712Y618744D01*
X491337Y607974D01*
X494538Y597611D01*
X498856Y588619D01*
X499770Y585724D01*
X499770Y582676D01*
X498856Y579831D01*
X494538Y570788D01*
X491337Y560425D01*
X489712Y549656D01*
X489712Y538784D01*
X491337Y527964D01*
X494538Y517550D01*
X498856Y508609D01*
X499770Y505764D01*
X499770Y502716D01*
X498856Y499821D01*
X494538Y490778D01*
X491743Y481787D01*
X522528Y481787D01*
X525119Y481380D01*
X530758Y478535D01*
X540918Y474522D01*
X542950Y474065D01*
X546506Y472541D01*
X549198Y469696D01*
X550672Y466191D01*
X550672Y462280D01*
X549198Y458673D01*
X546506Y455879D01*
X542950Y454304D01*
X540918Y453847D01*
X530758Y449884D01*
X525119Y447040D01*
X522528Y446684D01*
X491743Y446684D01*
X494538Y437540D01*
X498856Y428650D01*
X499770Y425704D01*
X499770Y422706D01*
X498856Y419811D01*
X494538Y410870D01*
X491337Y400405D01*
X489712Y389636D01*
X489712Y378764D01*
X491337Y367995D01*
X494538Y357581D01*
X498856Y348589D01*
X499770Y345694D01*
X499770Y342646D01*
X498856Y339750D01*
X494538Y330860D01*
X491337Y320446D01*
X489712Y309626D01*
X489712Y298754D01*
X491337Y287985D01*
X494538Y277622D01*
X498856Y268579D01*
X499770Y265734D01*
X499770Y262636D01*
X498856Y259791D01*
X494538Y250850D01*
X491337Y240436D01*
X489712Y229666D01*
X489712Y218744D01*
X491337Y207975D01*
X494538Y197561D01*
X498856Y188620D01*
X499770Y185724D01*
X499770Y182727D01*
X498856Y179832D01*
X494538Y170789D01*
X491337Y160426D01*
X489712Y149656D01*
X489712Y144627D01*
X488950Y140766D01*
X486765Y137464D01*
X483463Y135229D01*
X479551Y134467D01*
X474522Y134467D01*
X463753Y132791D01*
X453390Y129641D01*
X444398Y125272D01*
X441502Y124409D01*
X438454Y124409D01*
X435559Y125272D01*
X426618Y129641D01*
X416204Y132791D01*
X405434Y134467D01*
X394563Y134467D01*
X383794Y132791D01*
X373380Y129641D01*
X364388Y125272D01*
X361492Y124409D01*
X358495Y124409D01*
X355600Y125272D01*
X346608Y129641D01*
X336194Y132791D01*
X325424Y134467D01*
X314553Y134467D01*
X303784Y132791D01*
X293370Y129641D01*
X284378Y125272D01*
X281482Y124409D01*
X278485Y124409D01*
X275590Y125272D01*
X266598Y129641D01*
X256184Y132791D01*
X245414Y134467D01*
X234543Y134467D01*
X223774Y132791D01*
X213360Y129641D01*
X204419Y125272D01*
X201523Y124409D01*
X198475Y124409D01*
X195580Y125272D01*
X186588Y129641D01*
X176225Y132791D01*
X165455Y134467D01*
X154533Y134467D01*
X143764Y132791D01*
X133350Y129641D01*
X124409Y125272D01*
X121513Y124409D01*
X118465Y124409D01*
X115570Y125272D01*
X106629Y129641D01*
X96215Y132791D01*
X85445Y134467D01*
X74523Y134467D01*
X63754Y132791D01*
X53390Y129641D01*
X44399Y125272D01*
X41503Y124409D01*
X38455Y124409D01*
X35560Y125272D01*
X26619Y129641D01*
X16205Y132791D01*
X5435Y134467D01*
X-5435Y134467D01*
X-16205Y132791D01*
X-26619Y129641D01*
X-35610Y125272D01*
X-38506Y124409D01*
G37*

%LPD*%
G36*
X139293Y-2315210D02*
G01*
X135585Y-2314448D01*
X132435Y-2312263D01*
X130302Y-2309215D01*
X127660Y-2303221D01*
X119887Y-2290013D01*
X110591Y-2277872D01*
X99923Y-2266848D01*
X92049Y-2260447D01*
X89306Y-2256942D01*
X88290Y-2252573D01*
X88239Y-2099970D01*
X87426Y-2091182D01*
X87020Y-2088743D01*
X84886Y-2080107D01*
X84124Y-2077821D01*
X79654Y-2067458D01*
X75082Y-2059939D01*
X73660Y-2057958D01*
X68021Y-2051151D01*
X-6350Y-1976729D01*
X-15138Y-1969719D01*
X-22707Y-1965147D01*
X-24892Y-1964029D01*
X-33070Y-1960625D01*
X-43942Y-1957730D01*
X-55168Y-1956511D01*
X-358140Y-1956511D01*
X-362000Y-1955698D01*
X-365302Y-1953514D01*
X-385673Y-1933092D01*
X-387858Y-1929790D01*
X-388670Y-1925929D01*
X-387858Y-1922018D01*
X-385673Y-1918817D01*
X-382371Y-1916531D01*
X-378510Y-1915820D01*
X-370332Y-1915820D01*
X-361137Y-1915007D01*
X-352653Y-1912670D01*
X-344678Y-1909013D01*
X-337464Y-1903933D01*
X-331266Y-1897735D01*
X-326186Y-1890572D01*
X-324612Y-1887118D01*
X-321919Y-1883613D01*
X-318008Y-1881530D01*
X-313588Y-1881378D01*
X-309524Y-1883105D01*
X-295960Y-1892706D01*
X-281178Y-1900834D01*
X-272237Y-1904593D01*
X-272237Y-1821688D01*
X-309219Y-1821688D01*
X-313131Y-1820824D01*
X-316433Y-1818690D01*
X-318617Y-1815338D01*
X-319379Y-1811477D01*
X-319379Y-1719122D01*
X-318617Y-1715211D01*
X-316433Y-1711909D01*
X-313131Y-1709724D01*
X-309219Y-1708912D01*
X-272237Y-1708912D01*
X-272237Y-1626006D01*
X-281178Y-1629765D01*
X-295960Y-1637893D01*
X-309524Y-1647494D01*
X-313588Y-1649222D01*
X-318008Y-1649018D01*
X-321919Y-1646986D01*
X-324612Y-1643481D01*
X-326186Y-1640027D01*
X-331266Y-1632864D01*
X-337464Y-1626666D01*
X-344678Y-1621586D01*
X-352653Y-1617929D01*
X-361137Y-1615592D01*
X-370332Y-1614779D01*
X-569468Y-1614779D01*
X-578662Y-1615592D01*
X-587146Y-1617929D01*
X-595731Y-1621891D01*
X-599694Y-1622856D01*
X-603707Y-1622145D01*
X-607110Y-1619961D01*
X-609396Y-1616608D01*
X-610209Y-1612646D01*
X-610209Y-1268780D01*
X-609346Y-1264615D01*
X-606806Y-1261262D01*
X-603148Y-1259128D01*
X-598932Y-1258671D01*
X-594918Y-1259992D01*
X-591769Y-1262888D01*
X-582930Y-1275181D01*
X-572617Y-1286510D01*
X-560984Y-1296517D01*
X-548335Y-1305052D01*
X-534670Y-1312062D01*
X-528320Y-1314399D01*
X-528320Y-1239469D01*
X-600049Y-1239469D01*
X-603910Y-1238707D01*
X-607212Y-1236522D01*
X-609447Y-1233220D01*
X-610209Y-1229309D01*
X-610209Y-1158240D01*
X-609447Y-1154379D01*
X-607212Y-1151077D01*
X-603910Y-1148842D01*
X-600049Y-1148080D01*
X-528320Y-1148080D01*
X-528320Y-1072946D01*
X-541629Y-1078788D01*
X-554786Y-1086612D01*
X-566978Y-1095908D01*
X-577951Y-1106627D01*
X-587603Y-1118463D01*
X-591464Y-1124610D01*
X-594512Y-1127658D01*
X-598525Y-1129182D01*
X-602843Y-1128928D01*
X-606653Y-1126845D01*
X-609295Y-1123391D01*
X-610209Y-1119174D01*
X-610209Y-924407D01*
X-609447Y-920546D01*
X-607212Y-917244D01*
X-555802Y-865835D01*
X-552500Y-863650D01*
X-548640Y-862837D01*
X-544880Y-862837D01*
X-540613Y-863853D01*
X-537108Y-866495D01*
X-535076Y-870356D01*
X-534263Y-873506D01*
X-530504Y-881430D01*
X-525475Y-888695D01*
X-519277Y-894943D01*
X-512064Y-899972D01*
X-504088Y-903630D01*
X-495604Y-905916D01*
X-486409Y-906780D01*
X-374040Y-906780D01*
X-364794Y-905916D01*
X-356311Y-903630D01*
X-348335Y-899972D01*
X-341122Y-894943D01*
X-337362Y-891184D01*
X-334111Y-888898D01*
X-330200Y-888187D01*
X-326288Y-888898D01*
X-323037Y-891184D01*
X-319278Y-894943D01*
X-312064Y-899972D01*
X-309930Y-900937D01*
X-306832Y-903122D01*
X-304800Y-906373D01*
X-304088Y-910132D01*
X-304088Y-1054963D01*
X-304749Y-1058722D01*
X-306730Y-1061821D01*
X-309727Y-1064107D01*
X-313334Y-1065123D01*
X-316077Y-1065326D01*
X-324612Y-1067612D01*
X-332587Y-1071372D01*
X-339750Y-1076401D01*
X-345998Y-1082649D01*
X-351028Y-1089863D01*
X-354736Y-1097788D01*
X-357022Y-1106271D01*
X-357835Y-1115568D01*
X-359054Y-1119632D01*
X-361797Y-1122781D01*
X-365556Y-1124610D01*
X-369773Y-1124712D01*
X-373634Y-1123188D01*
X-376580Y-1120140D01*
X-377596Y-1118463D01*
X-387248Y-1106627D01*
X-398221Y-1095908D01*
X-410413Y-1086612D01*
X-423570Y-1078788D01*
X-436880Y-1072946D01*
X-436880Y-1148080D01*
X-367995Y-1148080D01*
X-364083Y-1148842D01*
X-360832Y-1151077D01*
X-358597Y-1154379D01*
X-357835Y-1158240D01*
X-357835Y-1229309D01*
X-358597Y-1233220D01*
X-360832Y-1236522D01*
X-364083Y-1238707D01*
X-367995Y-1239469D01*
X-436880Y-1239469D01*
X-436880Y-1314399D01*
X-430530Y-1312062D01*
X-416864Y-1305052D01*
X-404215Y-1296517D01*
X-392582Y-1286510D01*
X-382270Y-1275181D01*
X-376224Y-1266799D01*
X-373227Y-1264005D01*
X-369366Y-1262634D01*
X-365302Y-1262938D01*
X-361645Y-1264818D01*
X-359003Y-1267917D01*
X-357835Y-1271828D01*
X-357022Y-1281328D01*
X-354736Y-1289761D01*
X-351028Y-1297736D01*
X-345998Y-1304950D01*
X-339750Y-1311198D01*
X-332587Y-1316228D01*
X-324612Y-1319987D01*
X-316077Y-1322222D01*
X-306882Y-1322984D01*
X-150317Y-1322984D01*
X-141122Y-1322222D01*
X-132588Y-1319987D01*
X-124612Y-1316228D01*
X-121158Y-1313789D01*
X-117195Y-1312164D01*
X-112877Y-1312265D01*
X-108966Y-1314196D01*
X-106273Y-1317599D01*
X-105206Y-1321765D01*
X-105968Y-1325981D01*
X-110083Y-1336395D01*
X-112217Y-1344980D01*
X-112623Y-1347419D01*
X-113436Y-1356207D01*
X-113487Y-1427632D01*
X-113944Y-1430578D01*
X-117602Y-1442770D01*
X-119329Y-1454505D01*
X-119329Y-1466494D01*
X-117602Y-1478229D01*
X-114198Y-1489557D01*
X-109169Y-1500327D01*
X-102565Y-1510284D01*
X-94640Y-1519174D01*
X-85496Y-1526743D01*
X-75336Y-1532991D01*
X-64414Y-1537563D01*
X-52882Y-1540662D01*
X-46329Y-1541322D01*
X-42824Y-1542389D01*
X-39878Y-1544675D01*
X-37947Y-1547774D01*
X-37287Y-1551482D01*
X-37287Y-1629308D01*
X-37795Y-1632508D01*
X-39268Y-1635353D01*
X-41554Y-1637588D01*
X-55727Y-1647698D01*
X-68326Y-1658924D01*
X-79552Y-1671472D01*
X-80619Y-1672945D01*
X-83413Y-1675638D01*
X-86969Y-1677111D01*
X-90830Y-1677111D01*
X-94386Y-1675638D01*
X-97180Y-1672945D01*
X-98247Y-1671472D01*
X-109474Y-1658924D01*
X-122072Y-1647698D01*
X-135839Y-1637893D01*
X-150622Y-1629765D01*
X-159562Y-1626006D01*
X-159562Y-1708912D01*
X-115519Y-1708912D01*
X-111861Y-1709674D01*
X-108661Y-1711655D01*
X-106426Y-1714601D01*
X-105410Y-1718157D01*
X-105765Y-1721967D01*
X-108610Y-1731822D01*
X-111455Y-1748434D01*
X-112369Y-1765249D01*
X-111455Y-1782165D01*
X-108610Y-1798777D01*
X-105765Y-1808632D01*
X-105410Y-1812442D01*
X-106426Y-1815947D01*
X-108661Y-1818944D01*
X-111861Y-1820925D01*
X-115519Y-1821688D01*
X-159562Y-1821688D01*
X-159562Y-1904593D01*
X-150622Y-1900834D01*
X-135839Y-1892706D01*
X-122072Y-1882902D01*
X-109474Y-1871675D01*
X-98247Y-1859076D01*
X-97180Y-1857603D01*
X-94386Y-1854911D01*
X-90830Y-1853488D01*
X-86969Y-1853488D01*
X-83413Y-1854911D01*
X-80619Y-1857603D01*
X-79552Y-1859076D01*
X-68326Y-1871675D01*
X-55727Y-1882902D01*
X-41960Y-1892706D01*
X-27178Y-1900834D01*
X-11582Y-1907286D01*
X4622Y-1912010D01*
X21234Y-1914855D01*
X38100Y-1915820D01*
X54965Y-1914855D01*
X71577Y-1912010D01*
X87782Y-1907286D01*
X103378Y-1900834D01*
X118160Y-1892706D01*
X131927Y-1882902D01*
X144526Y-1871675D01*
X155752Y-1859076D01*
X156819Y-1857603D01*
X159613Y-1854911D01*
X163169Y-1853488D01*
X167030Y-1853488D01*
X170586Y-1854911D01*
X173380Y-1857603D01*
X174447Y-1859076D01*
X185674Y-1871675D01*
X198272Y-1882902D01*
X212039Y-1892706D01*
X226821Y-1900834D01*
X242417Y-1907286D01*
X258622Y-1912010D01*
X275234Y-1914855D01*
X292100Y-1915820D01*
X308965Y-1914855D01*
X325577Y-1912010D01*
X341782Y-1907286D01*
X357378Y-1900834D01*
X372160Y-1892706D01*
X378460Y-1888236D01*
X382524Y-1886559D01*
X386943Y-1886661D01*
X390855Y-1888693D01*
X393547Y-1892198D01*
X394512Y-1896516D01*
X394512Y-1907641D01*
X393750Y-1911502D01*
X391515Y-1914753D01*
X211582Y-2094788D01*
X205943Y-2101596D01*
X204520Y-2103577D01*
X199948Y-2111197D01*
X198882Y-2113330D01*
X194716Y-2123795D01*
X192582Y-2132380D01*
X192176Y-2134819D01*
X191363Y-2143607D01*
X191312Y-2252268D01*
X190804Y-2255469D01*
X189331Y-2258364D01*
X185267Y-2261819D01*
X173990Y-2272182D01*
X163982Y-2283815D01*
X155448Y-2296515D01*
X148640Y-2309723D01*
X146304Y-2312720D01*
X143052Y-2314651D01*
G37*

%LPD*%
D10*
X-3898798Y-839952D02*
G01*
X-2119020Y-839952D01*
X-1663598Y-1295374D01*
X-1663598Y-1600174D01*
D11*
X240134Y25D02*
G01*
X240134Y-252702D01*
X317500Y-330067D01*
X317500Y-585800D01*
X101Y25D02*
G01*
X101Y-266674D01*
X-82702Y-349478D01*
X-233324Y-349478D01*
X266700Y-2920997D02*
G01*
X266700Y-2705100D01*
X266700Y-2705100D01*
X12700Y-2920997D02*
G01*
X12700Y-2603500D01*
X12700Y-2603500D01*
X774697Y-2031994D02*
G01*
X774697Y-2362197D01*
X317500Y-785797D02*
G01*
X317500Y-1333500D01*
X317500Y-1333500D01*
X-469798Y-1765274D02*
G01*
X-469798Y-1955774D01*
X-393598Y-2031974D01*
X-57810Y-2031974D01*
X12801Y-2102586D01*
X12801Y-2362174D01*
X-431800Y825500D02*
G01*
X-431800Y-174574D01*
X-433473Y-176248D01*
X-433473Y-349478D01*
X-430225Y-787400D02*
G01*
X-430225Y-352658D01*
X-433400Y-349483D01*
X-230200Y-787400D02*
G01*
X-228587Y-789012D01*
X-228587Y-1193797D01*
X-430174Y-787374D02*
G01*
X-584098Y-787374D01*
X-685698Y-888974D01*
X-685698Y-1663674D01*
X-584098Y-1765274D01*
X-469798Y-1765274D01*
X292100Y-1460497D02*
G01*
X292100Y-1765300D01*
X152400Y1303985D02*
G01*
X461439Y1303985D01*
X800199Y965225D01*
X800199Y457225D01*
X727049Y384324D01*
X624184Y384324D01*
X-1092100Y1778025D02*
G01*
X-1092100Y1473225D01*
X-926975Y1308100D01*
X-431800Y1308100D01*
X-431800Y1308100D02*
G01*
X148457Y1308100D01*
X152499Y1304058D01*
X-3898798Y260121D02*
G01*
X-3499002Y260121D01*
X-2679598Y1079525D01*
X38201Y1079525D01*
X159867Y957605D01*
X159867Y848385D01*
D10*
X-2286000Y-2489197D02*
G01*
X-1752602Y-2489197D01*
X-1752600Y-2489200D01*
X-2286000Y-1600197D02*
G01*
X-2286000Y-1600200D01*
X-2286000Y-2489200D01*
D11*
X-233400Y-349483D02*
G01*
X-230200Y-352684D01*
X-230200Y-787400D01*
X319887Y25D02*
G01*
X319887Y-218414D01*
X470001Y-368528D01*
X470001Y-1943074D01*
X266801Y-2146274D01*
X266801Y-2362174D01*
X399897Y25D02*
G01*
X399897Y-184124D01*
X546201Y-330428D01*
X546201Y-2133574D01*
X520801Y-2158974D01*
X520801Y-2362174D01*
X624179Y144297D02*
G01*
X624179Y-179806D01*
X698601Y-254228D01*
X698601Y-1689074D01*
X1105001Y-2095474D01*
X1105001Y-2705074D01*
X624179Y224307D02*
G01*
X741019Y224307D01*
X774801Y190525D01*
X774801Y-1650974D01*
X1181201Y-2057374D01*
X1181201Y-2603474D01*
X1206601Y-2603474D01*
X479907Y25D02*
G01*
X479907Y-149834D01*
X622401Y-292328D01*
X622401Y-1727174D01*
X1028801Y-2133574D01*
X1028801Y-2590774D01*
X698601Y-2920974D01*
X520801Y-2920974D01*
X38201Y-1765274D02*
G01*
X38201Y-1549374D01*
X159867Y-1427708D01*
X159867Y25D01*
X80111Y25D02*
G01*
X80111Y-1240764D01*
X-37998Y-1358874D01*
X-37998Y-1460474D01*
D10*
X-3898798Y-1739874D02*
G01*
X-3238398Y-1739874D01*
X-2793898Y-2184374D01*
X-2793898Y-2489174D01*
X-1663598Y-1600174D02*
G01*
X-1371498Y-1600174D01*
X-1244498Y-1727174D01*
X-1244498Y-2489174D01*
D12*
G01*
X624204Y144195D03*
G01*
X624204Y224205D03*
G01*
X624204Y304215D03*
G01*
X624204Y384200D03*
G01*
X624204Y464210D03*
G01*
X624204Y544195D03*
G01*
X624204Y624204D03*
G01*
X624204Y704214D03*
D13*
G01*
X480009Y848410D03*
G01*
X399999Y848410D03*
G01*
X319989Y848410D03*
G01*
X240004Y848410D03*
G01*
X159994Y848410D03*
G01*
X80009Y848410D03*
G01*
X0Y848410D03*
G01*
X-80010Y848410D03*
D12*
G01*
X-224205Y704214D03*
G01*
X-224205Y624204D03*
G01*
X-224205Y544195D03*
G01*
X-224205Y464210D03*
G01*
X-224205Y384200D03*
G01*
X-224205Y304215D03*
G01*
X-224205Y224205D03*
G01*
X-224205Y144195D03*
D13*
G01*
X-80010Y0D03*
G01*
X0Y0D03*
G01*
X80009Y0D03*
G01*
X159994Y0D03*
G01*
X240004Y0D03*
G01*
X319989Y0D03*
G01*
X399999Y0D03*
G01*
X480009Y0D03*
D14*
G01*
X-433412Y-349483D03*
G01*
X-233408Y-349483D03*
D15*
G01*
X152400Y1743989D03*
G01*
X152400Y1303985D03*
D16*
G01*
X-430204Y-787397D03*
G01*
X-230195Y-787397D03*
D17*
G01*
X317499Y-785799D03*
D18*
G01*
X317500Y-585800D03*
D19*
G01*
X-228600Y-1193800D03*
D20*
G01*
X-482600Y-1193800D03*
G01*
X774700Y-2362200D03*
G01*
X520700Y-2362200D03*
G01*
X266700Y-2362200D03*
G01*
X12700Y-2362200D03*
G01*
X-241300Y-2362200D03*
D19*
G01*
X-495300Y-2362200D03*
D21*
G01*
X-2286000Y-2489200D03*
G01*
X-2794000Y-2489200D03*
G01*
X-1244600Y-2489200D03*
G01*
X-1752600Y-2489200D03*
D22*
G01*
X-3898900Y-1739900D03*
G01*
X-3898900Y-839978D03*
G01*
X-3898900Y260096D03*
G01*
X-3898900Y760221D03*
G01*
X-2286000Y-1600200D03*
G01*
X-1663700Y-1600200D03*
G01*
X-2857500Y1765300D03*
G01*
X-1092200Y1778000D03*
D23*
G01*
X-469900Y-1765300D03*
D24*
G01*
X-215900Y-1765300D03*
G01*
X38100Y-1765300D03*
G01*
X292100Y-1765300D03*
G01*
X-495300Y-2921000D03*
G01*
X-241300Y-2921000D03*
G01*
X12700Y-2921000D03*
G01*
X266700Y-2921000D03*
D23*
G01*
X520700Y-2921000D03*
D25*
G01*
X292100Y-1460500D03*
G01*
X-38100Y-1460500D03*
G01*
X-431800Y1308100D03*
G01*
X-431800Y825500D03*
G01*
X317500Y-1333500D03*
G01*
X774700Y-2032000D03*
G01*
X12700Y-2603500D03*
G01*
X266700Y-2705100D03*
G01*
X1104900Y-2705100D03*
G01*
X1206601Y-2603474D03*
G01*
X190500Y431800D03*
M02*
