G04 Layer: TopPasteMaskLayer*
G04 EasyEDA v6.5.46, 2024-09-20 08:35:55*
G04 a7edf335d4994be98b658af7e20cc970,64d3660010d149859882a44b8c89f403,10*
G04 Gerber Generator version 0.2*
G04 Scale: 100 percent, Rotated: No, Reflected: No *
G04 Dimensions in millimeters *
G04 leading zeros omitted , absolute positions ,4 integer and 5 decimal *
%FSLAX45Y45*%
%MOMM*%

%ADD10O,1.6839946000000001X0.4480052*%
%ADD11O,0.4480052X1.6839946000000001*%
%ADD12R,0.9800X3.0000*%

%LPD*%
G36*
X-285902Y-282498D02*
G01*
X-290931Y-287477D01*
X-290423Y-329488D01*
X-246430Y-329488D01*
X-246430Y-374497D01*
X-291388Y-374497D01*
X-290931Y-415493D01*
X-285902Y-420471D01*
X-170891Y-420471D01*
X-165912Y-415493D01*
X-165912Y-287477D01*
X-170891Y-282498D01*
G37*
G36*
X-500888Y-282498D02*
G01*
X-505917Y-287477D01*
X-505917Y-415493D01*
X-500888Y-420471D01*
X-385927Y-420471D01*
X-380898Y-415493D01*
X-381406Y-374497D01*
X-425399Y-374497D01*
X-425399Y-329488D01*
X-380898Y-329488D01*
X-380898Y-287477D01*
X-385927Y-282498D01*
G37*
G36*
X-280212Y-718413D02*
G01*
X-285191Y-723392D01*
X-284683Y-765403D01*
X-240690Y-765403D01*
X-240690Y-810412D01*
X-285699Y-810412D01*
X-285191Y-851408D01*
X-280212Y-856386D01*
X-165201Y-856386D01*
X-160172Y-851408D01*
X-160172Y-723392D01*
X-165201Y-718413D01*
G37*
G36*
X-495198Y-718413D02*
G01*
X-500176Y-723392D01*
X-500176Y-851408D01*
X-495198Y-856386D01*
X-380187Y-856386D01*
X-375208Y-851408D01*
X-375716Y-810412D01*
X-419709Y-810412D01*
X-419709Y-765403D01*
X-375208Y-765403D01*
X-375208Y-723392D01*
X-380187Y-718413D01*
G37*
G36*
X255524Y-518312D02*
G01*
X250494Y-523290D01*
X250494Y-638302D01*
X255524Y-643280D01*
X297484Y-642772D01*
X297484Y-598779D01*
X342493Y-598779D01*
X342493Y-643788D01*
X383489Y-643280D01*
X388518Y-638302D01*
X388518Y-523290D01*
X383489Y-518312D01*
G37*
G36*
X255524Y-733298D02*
G01*
X250494Y-738276D01*
X250494Y-853287D01*
X255524Y-858316D01*
X383489Y-858316D01*
X388518Y-853287D01*
X388518Y-738276D01*
X383489Y-733298D01*
X342493Y-733806D01*
X342493Y-777798D01*
X297484Y-777798D01*
X297484Y-733298D01*
G37*
D10*
G01*
X624204Y144195D03*
G01*
X624204Y224205D03*
G01*
X624204Y304215D03*
G01*
X624204Y384200D03*
G01*
X624204Y464210D03*
G01*
X624204Y544195D03*
G01*
X624204Y624204D03*
G01*
X624204Y704214D03*
D11*
G01*
X480009Y848410D03*
G01*
X399999Y848410D03*
G01*
X319989Y848410D03*
G01*
X240004Y848410D03*
G01*
X159994Y848410D03*
G01*
X80009Y848410D03*
G01*
X0Y848410D03*
G01*
X-80010Y848410D03*
D10*
G01*
X-224205Y704214D03*
G01*
X-224205Y624204D03*
G01*
X-224205Y544195D03*
G01*
X-224205Y464210D03*
G01*
X-224205Y384200D03*
G01*
X-224205Y304215D03*
G01*
X-224205Y224205D03*
G01*
X-224205Y144195D03*
D11*
G01*
X-80010Y0D03*
G01*
X0Y0D03*
G01*
X80009Y0D03*
G01*
X159994Y0D03*
G01*
X240004Y0D03*
G01*
X319989Y0D03*
G01*
X399999Y0D03*
G01*
X480009Y0D03*
D12*
G01*
X152400Y1743989D03*
G01*
X152400Y1303985D03*
M02*
